<?xml version="1.0" encoding="UTF-8" standalone="no"?>
<!-- Created with Inkscape (http://www.inkscape.org/) -->

<svg
   width="210mm"
   height="297mm"
   viewBox="0 0 210 297"
   version="1.1"
   id="svg5"
   xml:space="preserve"
   inkscape:version="1.2.2 (732a01da63, 2022-12-09)"
   sodipodi:docname="introduction.svg"
   xmlns:inkscape="http://www.inkscape.org/namespaces/inkscape"
   xmlns:sodipodi="http://sodipodi.sourceforge.net/DTD/sodipodi-0.dtd"
   xmlns="http://www.w3.org/2000/svg"
   xmlns:svg="http://www.w3.org/2000/svg"><sodipodi:namedview
     id="namedview7"
     pagecolor="#ffffff"
     bordercolor="currentColor"
     borderopacity="0.25"
     inkscape:showpageshadow="2"
     inkscape:pageopacity="0.0"
     inkscape:pagecheckerboard="0"
     inkscape:deskcolor="#d1d1d1"
     inkscape:document-units="mm"
     showgrid="false"
     inkscape:zoom="1.829812"
     inkscape:cx="353.31498"
     inkscape:cy="324.07701"
     inkscape:window-width="2498"
     inkscape:window-height="1417"
     inkscape:window-x="54"
     inkscape:window-y="-8"
     inkscape:window-maximized="1"
     inkscape:current-layer="layer1" /><defs
     id="defs2"><style
       type="text/css"
       id="style184">*{stroke-linejoin: round; stroke-linecap: butt}</style><style
       type="text/css"
       id="style259">*{stroke-linejoin: round; stroke-linecap: butt}</style><style
       type="text/css"
       id="style800">*{stroke-linejoin: round; stroke-linecap: butt}</style></defs><g
     inkscape:label="Layer 1"
     inkscape:groupmode="layer"
     id="layer1"><text
       xml:space="preserve"
       style="font-size:12.7px;font-family:'Cambria Math';-inkscape-font-specification:'Cambria Math';fill:currentColor;stroke:#1f1f1f;stroke-width:0.529167;stroke-linecap:round"
       x="4.2946968"
       y="37.305744"
       id="text609"><tspan
         sodipodi:role="line"
         id="tspan607"
         style="font-style:normal;font-variant:normal;font-weight:bold;font-stretch:normal;font-size:12.7px;font-family:Calibri;-inkscape-font-specification:'Calibri Bold';stroke:none;stroke-width:0.529167"
         x="4.2946968"
         y="37.305744">With one click:</tspan></text><text
       xml:space="preserve"
       style="font-size:12.7px;font-family:'Cambria Math';-inkscape-font-specification:'Cambria Math';fill:currentColor;stroke:#1f1f1f;stroke-width:0.529167;stroke-linecap:round;stroke-linejoin:round"
       x="23.704617"
       y="55.443413"
       id="text765-3"><tspan
         sodipodi:role="line"
         id="tspan763-3"
         style="font-style:normal;font-variant:normal;font-weight:bold;font-stretch:normal;font-size:12.7px;font-family:Calibri;-inkscape-font-specification:'Calibri Bold';stroke:none;stroke-width:0.529167"
         x="23.704617"
         y="55.443413">Turn this...</tspan></text><text
       xml:space="preserve"
       style="font-size:12.7px;font-family:'Cambria Math';-inkscape-font-specification:'Cambria Math';fill:currentColor;stroke:#1f1f1f;stroke-width:0.529167;stroke-linecap:round;stroke-linejoin:round"
       x="37.377716"
       y="103.10332"
       id="text796"><tspan
         sodipodi:role="line"
         id="tspan794"
         style="font-style:normal;font-variant:normal;font-weight:bold;font-stretch:normal;font-size:12.7px;font-family:Calibri;-inkscape-font-specification:'Calibri Bold';stroke:none;stroke-width:0.529167"
         x="37.377716"
         y="103.10332">...into this!</tspan></text><g
       id="figure_1-26"
       transform="matrix(0.25182522,0,0,0.25182522,66.039532,60.304223)"
       style="stroke:none;stroke-width:1.31543;stroke-dasharray:none"><g
         id="patch_1-7"
         style="stroke:none;stroke-width:1.31543;stroke-dasharray:none"><path
           d="M 0,86.00643 H 375.47951 V 0 H 0 Z"
           style="fill:none;stroke:none;stroke-width:1.31543;stroke-dasharray:none"
           id="path804" /></g><g
         id="text_1-1"
         style="stroke:none;stroke-width:1.31543;stroke-dasharray:none"><!-- $f = x \cos(y)$ --><g
           transform="matrix(0.72,0,0,-0.72,7.2,60.933679)"
           id="g836"
           style="stroke:none;stroke-width:1.82699;stroke-dasharray:none"><defs
             id="defs816" /><path
             id="use818"
             d="m 44.427148,39.94396 c 1.992528,0 2.801992,0 2.801992,1.899128 0,0.996264 -0.809464,0.996264 -2.599626,0.996264 h -8.063512 c 1.883562,10.538605 3.284558,17.823786 4.078456,21.092777 0.607098,2.459527 2.693026,4.810087 5.277086,4.810087 2.101494,0 4.187422,-0.902864 5.183686,-1.836862 -3.87609,-0.404732 -5.07472,-3.362391 -5.07472,-5.121419 0,-2.054795 1.494396,-3.268992 3.377958,-3.268992 1.992528,0 4.98132,1.727896 4.98132,5.603985 0,4.265256 -4.171856,6.615816 -8.561644,6.615816 -4.280822,0 -8.468244,-3.268991 -10.460772,-7.254047 -1.790162,-3.580324 -2.786426,-7.269614 -5.07472,-20.641345 H 23.61457 c -1.899128,0 -2.895392,0 -2.895392,-1.790162 0,-1.10523 0.607098,-1.10523 2.599626,-1.10523 h 6.36675 C 27.895392,30.759651 23.816936,8.4371108 21.513076,-2.1326276 19.83188,-10.725405 18.337484,-17.932752 13.356164,-17.932752 c -0.311332,0 -3.191158,0 -4.9813197,1.883562 5.0747197,0.404732 5.0747197,4.74782 5.0747197,4.84122 0,1.9769614 -1.494396,3.1600249 -3.393524,3.1600249 -1.9925282,0 -4.9813203,-1.6811955 -4.9813203,-5.4483189 0,-4.249689 4.3897883,-6.429016 8.2814443,-6.429016 10.14944,0 14.336862,18.0884182 15.442092,23.0230384 1.790162,7.6120796 6.662516,33.8885426 7.160648,36.8462016 z"
             style="fill:currentColor;stroke:currentColor;stroke-width:4.37776;stroke-dasharray:none" /><path
             id="use820"
             d="m 150.45098,31.397883 c 1.49439,0 2.98879,0 2.98879,1.681195 0,1.790162 -1.69676,1.790162 -3.37796,1.790162 H 94.364426 c -1.696762,0 -3.393524,0 -3.393524,-1.790162 0,-1.681195 1.494396,-1.681195 2.988792,-1.681195 z m -0.38917,-17.450187 c 1.6812,0 3.37796,0 3.37796,1.790162 0,1.681195 -1.4944,1.681195 -2.98879,1.681195 H 93.959694 c -1.494396,0 -2.988792,0 -2.988792,-1.681195 0,-1.790162 1.696762,-1.790162 3.393524,-1.790162 z"
             style="fill:currentColor;stroke:currentColor;stroke-width:4.37776;stroke-dasharray:none" /><path
             id="use822"
             d="m 233.01225,40.566625 c -3.19116,-0.607099 -4.38979,-2.988792 -4.38979,-4.872354 0,-2.39726 1.89913,-3.191158 3.28456,-3.191158 2.98879,0 5.09029,2.58406 5.09029,5.277086 0,4.171855 -4.79452,6.055417 -8.96638,6.055417 -6.08655,0 -9.46451,-5.962017 -10.36737,-7.845579 -2.2883,7.845579 -8.46825,7.845579 -10.25841,7.845579 -10.165,0 -15.55106,-13.013698 -15.55106,-15.208593 0,-0.389165 0.40474,-0.887297 1.10523,-0.887297 0.7939,0 0.99627,0.591531 1.19863,0.996264 3.37796,11.036737 10.05604,13.122665 12.95144,13.122665 4.48318,0 5.37048,-4.187422 5.37048,-6.569116 0,-2.179328 -0.59153,-4.467621 -1.79016,-9.246575 l -3.39352,-13.620797 c -1.4944,-5.9620176 -4.37423,-11.425903 -9.65131,-11.425903 -0.49813,0 -2.98879,0 -5.09029,1.2920299 3.59589,0.7004981 4.38979,3.6737235 4.38979,4.8723536 0,1.992528 -1.4944,3.1755915 -3.39352,3.1755915 -2.3817,0 -4.98132,-2.0859277 -4.98132,-5.2615193 0,-4.18742208 4.68555,-6.0709837 8.96637,-6.0709837 4.77896,0 8.17248,3.7826899 10.25841,7.8611456 1.60336,-5.8686176 6.58468,-7.8611456 10.27397,-7.8611456 10.14944,0 15.53549,13.029265 15.53549,15.208593 0,0.498132 -0.40473,0.902864 -0.99626,0.902864 -0.90287,0 -0.99627,-0.498132 -1.29203,-1.29203 -2.69303,-8.7484433 -8.46825,-12.826899 -12.95143,-12.826899 -3.48693,0 -5.38606,2.5840598 -5.38606,6.6625155 0,2.1793275 0.40474,3.7671235 1.99253,10.3362385 l 3.48693,13.511831 c 1.49439,5.977584 4.88792,10.351806 9.4645,10.351806 0.20237,0 2.9888,0 5.09029,-1.29203 z"
             style="fill:currentColor;stroke:currentColor;stroke-width:4.37776;stroke-dasharray:none" /><path
             id="use824"
             d="m 292.59741,34.86924 c -1.89913,0 -4.68555,0 -4.68555,-3.471357 0,-2.786426 2.28829,-3.580324 3.58032,-3.580324 0.7005,0 3.59589,0.311332 3.59589,3.68929 0,6.896015 -6.78705,12.126401 -14.44583,12.126401 -10.56974,0 -19.53611,-9.729141 -19.53611,-22.41594 0,-13.1849315 9.37111,-22.213574 19.53611,-22.213574 12.34434,0 15.44209,11.534869 15.44209,12.6401 0,0.404732 -0.10896,0.700498 -0.80946,0.700498 -0.68493,0 -0.7939,-0.0934 -1.18306,-1.400997 -2.59963,-8.1413445 -8.28145,-10.14943912 -12.56227,-10.14943912 -6.36675,0 -14.0411,5.85305102 -14.0411,20.51681212 0,15.084059 7.36302,20.532378 13.2472,20.532378 3.89166,0 9.66688,-1.790162 11.86177,-6.973848 z"
             style="fill:currentColor;stroke:currentColor;stroke-width:4.37776;stroke-dasharray:none" /><path
             id="use826"
             d="m 341.23999,21.108343 c 0,12.764633 -9.26214,22.727273 -20.11208,22.727273 -10.8655,0 -20.12764,-9.96264 -20.12764,-22.727273 0,-12.5311326 9.26214,-22.104607 20.12764,-22.104607 10.84994,0 20.11208,9.5734744 20.11208,22.104607 z M 321.12791,0.79389788 c -4.68555,0 -8.67061,2.78642592 -10.9589,6.67808212 -2.49066,4.467621 -2.80199,10.05604 -2.80199,14.445828 0,4.187422 0.20236,9.371108 2.80199,13.854296 1.99253,3.284558 5.86862,6.475716 10.9589,6.475716 4.48319,0 8.26588,-2.49066 10.64757,-5.977584 3.09776,-4.685554 3.09776,-11.25467 3.09776,-14.352428 0,-3.891656 -0.20236,-9.853674 -2.89539,-14.6481941 -2.78643,-4.5765878 -7.06725,-6.47571602 -10.84994,-6.47571602 z"
             style="fill:currentColor;stroke:currentColor;stroke-width:4.37776;stroke-dasharray:none" /><path
             id="use828"
             d="m 374.78849,41.983188 c 0,1.805728 -0.10896,1.899128 -0.70049,1.899128 -0.40474,0 -0.49814,-0.0934 -1.69677,-1.587796 -0.29576,-0.404732 -1.19863,-1.416563 -1.49439,-1.805728 -3.19116,3.393524 -7.67435,3.393524 -9.37111,3.393524 -11.0523,0 -15.03736,-5.790785 -15.03736,-11.566003 0,-8.997509 10.16501,-11.06787 13.04483,-11.690535 6.28892,-1.276463 8.46825,-1.681195 10.56974,-3.486924 1.29203,-1.183063 3.48692,-3.377957 3.48692,-6.958281 0,-4.202989 -2.39726,-9.58904125 -11.566,-9.58904125 -8.65504,0 -11.7528,6.56911575 -13.54296,15.30199225 -0.29577,1.38543 -0.29577,1.494396 -1.08967,1.494396 -0.80946,0 -0.90286,-0.108966 -0.90286,-2.085928 V 0.98069738 c 0,-1.77459526 0.0934,-1.88356163 0.7005,-1.88356163 0.49813,0 0.59153,0.10896637 1.08966,0.90286425 0.6071,0.88729762 2.1015,3.2845579 2.69303,4.2963885 1.99253,-2.6930261 5.47945,-5.2926525 11.0523,-5.2926525 9.86924,0 15.14633,5.4016189 15.14633,13.200498 0,5.105853 -2.69303,7.798879 -3.98506,8.997509 -2.98879,3.097759 -6.47571,3.798257 -10.66314,4.592155 -5.47945,1.214196 -12.4533,2.615193 -12.4533,8.71731 0,2.584059 1.401,8.094645 11.45704,8.094645 10.66314,0 11.27024,-10.00934 11.45704,-13.216065 0.10896,-0.498132 0.60709,-0.607098 0.90286,-0.607098 0.90286,0 0.90286,0.311332 0.90286,2.008094 z"
             style="fill:currentColor;stroke:currentColor;stroke-width:4.37776;stroke-dasharray:none" /><path
             id="use830"
             d="m 410.2785,-24.299502 c 0,0.0934 0,0.295766 -0.29576,0.591532 -4.57659,4.654421 -16.82753,17.3723536 -16.82753,48.318804 0,30.946451 12.04857,43.555417 16.93649,48.505604 0,0.108966 0.1868,0.311332 0.1868,0.607098 0,0.295766 -0.29576,0.498132 -0.68493,0.498132 -1.10523,0 -9.57347,-7.347447 -14.44583,-18.275218 -4.98132,-11.005604 -6.38231,-21.715442 -6.38231,-31.226649 0,-7.160648 0.70049,-19.2559156 6.67808,-32.0516814 4.77895,-10.3362386 12.95143,-17.5747196 14.15006,-17.5747196 0.49813,0 0.68493,0.202366 0.68493,0.607098 z"
             style="fill:currentColor;stroke:currentColor;stroke-width:4.37776;stroke-dasharray:none" /><path
             id="use832"
             d="m 441.27845,-10.896638 c -2.69303,-3.720423 -6.56912,-7.036114 -11.45704,-7.036114 -1.19863,0 -5.97758,0 -7.47198,4.094022 0.29577,-0.0934 0.7939,-0.0934 0.99627,-0.0934 2.98879,0 4.98132,2.584059 4.98132,4.8723532 0,2.2882939 -1.88356,3.0821918 -3.37796,3.0821918 -1.60336,0 -5.09029,-1.1519303 -5.09029,-5.837484 0,-4.856787 4.28083,-8.203612 9.96264,-8.203612 9.96264,0 20.03425,9.122042 22.82068,20.11207975 l 9.76027,38.58966325 c 0.0934,0.498132 0.29577,1.105231 0.29577,1.696762 0,1.47883 -1.19863,2.475094 -2.69303,2.475094 -0.8873,0 -2.98879,-0.404733 -3.78269,-3.393525 L 448.8594,10.242839 C 448.36126,8.4526774 448.36126,8.2503113 447.5518,7.1606475 445.55927,4.3742216 442.27471,0.996264 437.49576,0.996264 c -5.57285,0 -6.07098,5.4638854 -6.07098,8.1569115 0,5.6662515 2.67746,13.3094645 5.37048,20.4701115 1.10523,2.879826 1.69676,4.280822 1.69676,6.257784 0,4.187422 -2.98879,7.954545 -7.87671,7.954545 -9.15317,0 -12.84246,-14.414695 -12.84246,-15.208593 0,-0.389165 0.38916,-0.887297 1.08966,-0.887297 0.90286,0 0.99626,0.389165 1.401,1.790162 2.38169,8.343711 6.17995,12.328767 10.05604,12.328767 0.90286,0 2.59962,0 2.59962,-3.284558 0,-2.58406 -1.10523,-5.463886 -2.59962,-9.246576 -4.87236,-13.029265 -4.87236,-16.298256 -4.87236,-18.695516 0,-9.4333749 6.77148,-11.628269 11.7528,-11.628269 2.87983,0 6.47572,0.90286425 9.96264,4.5765878 l 0.0934,-0.0934 c -1.49439,-5.7752179 -2.49066,-9.589041 -5.97758,-14.3835618 z"
             style="fill:currentColor;stroke:currentColor;stroke-width:4.37776;stroke-dasharray:none" /><path
             id="use834"
             d="m 492.41723,24.610834 c 0,7.145081 -0.7005,19.240349 -6.67808,32.036114 -4.77896,10.336239 -12.95143,17.57472 -14.1345,17.57472 -0.31133,0 -0.7005,-0.108966 -0.7005,-0.607098 0,-0.1868 0.0934,-0.295766 0.20237,-0.498132 4.77895,-4.965754 16.93649,-17.57472 16.93649,-48.458904 0,-30.9931504 -12.06414,-43.602117 -16.93649,-48.583437 -0.10897,-0.186799 -0.20237,-0.295765 -0.20237,-0.482565 0,-0.498132 0.38917,-0.498132 0.7005,-0.498132 1.08967,0 9.55791,7.347447 14.44583,18.2752177 4.98132,11.0056039 6.36675,21.7154423 6.36675,31.2422163 z"
             style="fill:currentColor;stroke:currentColor;stroke-width:4.37776;stroke-dasharray:none;stroke-opacity:1" /></g></g></g><g
       id="figure_1-2"
       transform="matrix(0.14777697,0,0,0.14777697,10.900716,109.531)"><g
         id="patch_1-3"><path
           d="M 0,143.51713 H 1273.5311 V 0 H 0 Z"
           style="fill:none"
           id="path263" /></g><g
         id="text_1-6"><!-- $\Delta f = \sqrt{\left(\cos{\left(y \right)}\cdot \Delta x\right)^2 + \left(- x \sin{\left(y \right)}\cdot \Delta y\right)^2}$ --><g
           transform="matrix(0.72,0,0,-0.72,7.2,99.409026)"
           id="g349"><defs
             id="defs283" /><path
             id="use285"
             d="m 40.442092,68.53985 c -0.793898,1.696762 -1.183064,1.696762 -1.992528,1.696762 -1.183064,0 -1.29203,-0.202366 -1.992528,-1.603362 L 4.1874221,1.6967621 C 4.0784557,1.494396 3.6892901,0.59153175 3.6892901,0.498132 3.6892901,0.09339975 3.7826899,0 5.5728517,0 H 71.232876 c 1.790162,0 1.899128,0.09339975 1.899128,0.498132 0,0.0933998 -0.404732,0.996264 -0.498132,1.1986301 z M 35.958904,62.858032 63.55853,5.5728517 H 8.2658779 Z"
             style="fill:currentColor;stroke:currentColor;stroke-width:4.9734;stroke-dasharray:none" /><path
             id="use287"
             d="m 121.34674,39.94396 c 1.99253,0 2.80199,0 2.80199,1.899128 0,0.996264 -0.80946,0.996264 -2.59963,0.996264 h -8.06351 c 1.88356,10.538605 3.28456,17.823786 4.07846,21.092777 0.6071,2.459527 2.69302,4.810087 5.27708,4.810087 2.1015,0 4.18743,-0.902864 5.18369,-1.836862 -3.87609,-0.404732 -5.07472,-3.362391 -5.07472,-5.121419 0,-2.054795 1.4944,-3.268992 3.37796,-3.268992 1.99253,0 4.98132,1.727896 4.98132,5.603985 0,4.265256 -4.17186,6.615816 -8.56165,6.615816 -4.28082,0 -8.46824,-3.268991 -10.46077,-7.254047 -1.79016,-3.580324 -2.78642,-7.269614 -5.07472,-20.641345 h -6.67808 c -1.899128,0 -2.895392,0 -2.895392,-1.790162 0,-1.10523 0.607098,-1.10523 2.599622,-1.10523 h 6.36675 C 104.81498,30.759651 100.73653,8.4371108 98.432666,-2.1326276 96.75147,-10.725405 95.257074,-17.932752 90.275754,-17.932752 c -0.311332,0 -3.191158,0 -4.98132,1.883562 5.07472,0.404732 5.07472,4.74782 5.07472,4.84122 0,1.9769614 -1.494396,3.1600249 -3.393524,3.1600249 -1.992528,0 -4.98132,-1.6811955 -4.98132,-5.4483189 0,-4.249689 4.389788,-6.429016 8.281444,-6.429016 10.149436,0 14.336866,18.0884182 15.442096,23.0230384 1.79016,7.6120796 6.66251,33.8885426 7.16064,36.8462016 z"
             style="fill:currentColor;stroke:currentColor;stroke-width:4.9734;stroke-dasharray:none" /><path
             id="use289"
             d="m 227.37056,31.397883 c 1.4944,0 2.98879,0 2.98879,1.681195 0,1.790162 -1.69676,1.790162 -3.37795,1.790162 h -55.69739 c -1.69676,0 -3.39352,0 -3.39352,-1.790162 0,-1.681195 1.49439,-1.681195 2.98879,-1.681195 z M 226.9814,13.947696 c 1.68119,0 3.37795,0 3.37795,1.790162 0,1.681195 -1.49439,1.681195 -2.98879,1.681195 h -56.49128 c -1.4944,0 -2.98879,0 -2.98879,-1.681195 0,-1.790162 1.69676,-1.790162 3.39352,-1.790162 z"
             style="fill:currentColor;stroke:currentColor;stroke-width:4.9734;stroke-dasharray:none" /><path
             id="use291"
             d="m 308.93558,-36.315354 -21.41968,74.7198 -13.8543,-16.23599 1.5878,-1.494396 6.78705,7.970112 22.91407,-79.903486 c 3.28456,0 3.37796,0 4.17186,2.39726 L 363.8235,124.08315 c 0.49813,1.4944 0.49813,1.89913 0.49813,1.99253 0,1.08966 -0.7939,1.99253 -1.99253,1.99253 -1.4944,0 -1.89913,-1.29203 -2.28829,-2.58406 z"
             style="fill:currentColor;stroke:currentColor;stroke-width:4.9734;stroke-dasharray:none" /><path
             id="use293"
             d="m 392.80883,-24.296325 c 0,0.0934 0,0.295766 -0.29576,0.591532 -4.57659,4.654421 -16.82753,17.3723536 -16.82753,48.318804 0,30.946451 12.04857,43.555417 16.93649,48.505604 0,0.108966 0.1868,0.311332 0.1868,0.607098 0,0.295766 -0.29576,0.498132 -0.68493,0.498132 -1.10523,0 -9.57347,-7.347447 -14.44583,-18.275218 -4.98132,-11.005604 -6.38231,-21.715442 -6.38231,-31.226649 0,-7.160648 0.70049,-19.2559156 6.67808,-32.0516814 4.77895,-10.3362386 12.95143,-17.5747196 14.15006,-17.5747196 0.49813,0 0.68493,0.202366 0.68493,0.607098 z"
             style="fill:currentColor;stroke:currentColor;stroke-width:4.9734;stroke-dasharray:none" /><path
             id="use295"
             d="m 432.38598,34.86924 c -1.89913,0 -4.68555,0 -4.68555,-3.471357 0,-2.786426 2.28829,-3.580324 3.58032,-3.580324 0.7005,0 3.59589,0.311332 3.59589,3.68929 0,6.896015 -6.78705,12.126401 -14.44583,12.126401 -10.56974,0 -19.53611,-9.729141 -19.53611,-22.41594 0,-13.1849315 9.37111,-22.213574 19.53611,-22.213574 12.34434,0 15.44209,11.534869 15.44209,12.6401 0,0.404732 -0.10896,0.700498 -0.80946,0.700498 -0.68493,0 -0.7939,-0.0934 -1.18306,-1.400997 -2.59963,-8.1413445 -8.28145,-10.14943912 -12.56227,-10.14943912 -6.36675,0 -14.0411,5.85305102 -14.0411,20.51681212 0,15.084059 7.36302,20.532378 13.2472,20.532378 3.89166,0 9.66688,-1.790162 11.86177,-6.973848 z"
             style="fill:currentColor;stroke:currentColor;stroke-width:4.9734;stroke-dasharray:none" /><path
             id="use297"
             d="m 481.02855,21.108343 c 0,12.764633 -9.26214,22.727273 -20.11208,22.727273 -10.8655,0 -20.12764,-9.96264 -20.12764,-22.727273 0,-12.5311326 9.26214,-22.104607 20.12764,-22.104607 10.84994,0 20.11208,9.5734744 20.11208,22.104607 z M 460.91647,0.79389788 c -4.68555,0 -8.67061,2.78642592 -10.9589,6.67808212 -2.49066,4.467621 -2.80199,10.05604 -2.80199,14.445828 0,4.187422 0.20236,9.371108 2.80199,13.854296 1.99253,3.284558 5.86862,6.475716 10.9589,6.475716 4.48319,0 8.26588,-2.49066 10.64757,-5.977584 3.09776,-4.685554 3.09776,-11.25467 3.09776,-14.352428 0,-3.891656 -0.20236,-9.853674 -2.89539,-14.6481941 -2.78643,-4.5765878 -7.06725,-6.47571602 -10.84994,-6.47571602 z"
             style="fill:currentColor;stroke:currentColor;stroke-width:4.9734;stroke-dasharray:none" /><path
             id="use299"
             d="m 514.57706,41.983188 c 0,1.805728 -0.10896,1.899128 -0.70049,1.899128 -0.40474,0 -0.49814,-0.0934 -1.69677,-1.587796 -0.29576,-0.404732 -1.19863,-1.416563 -1.49439,-1.805728 -3.19116,3.393524 -7.67435,3.393524 -9.37111,3.393524 -11.0523,0 -15.03736,-5.790785 -15.03736,-11.566003 0,-8.997509 10.16501,-11.06787 13.04483,-11.690535 6.28892,-1.276463 8.46825,-1.681195 10.56974,-3.486924 1.29203,-1.183063 3.48692,-3.377957 3.48692,-6.958281 0,-4.202989 -2.39726,-9.58904125 -11.566,-9.58904125 -8.65504,0 -11.7528,6.56911575 -13.54296,15.30199225 -0.29577,1.38543 -0.29577,1.494396 -1.08967,1.494396 -0.80946,0 -0.90286,-0.108966 -0.90286,-2.085928 V 0.98069738 c 0,-1.77459526 0.0934,-1.88356163 0.7005,-1.88356163 0.49813,0 0.59153,0.10896637 1.08966,0.90286425 0.6071,0.88729762 2.1015,3.2845579 2.69303,4.2963885 1.99253,-2.6930261 5.47945,-5.2926525 11.0523,-5.2926525 9.86924,0 15.14633,5.4016189 15.14633,13.200498 0,5.105853 -2.69303,7.798879 -3.98506,8.997509 -2.98879,3.097759 -6.47571,3.798257 -10.66314,4.592155 -5.47945,1.214196 -12.4533,2.615193 -12.4533,8.71731 0,2.584059 1.401,8.094645 11.45704,8.094645 10.66314,0 11.27024,-10.00934 11.45704,-13.216065 0.10896,-0.498132 0.60709,-0.607098 0.90286,-0.607098 0.90286,0 0.90286,0.311332 0.90286,2.008094 z"
             style="fill:currentColor;stroke:currentColor;stroke-width:4.9734;stroke-dasharray:none" /><path
             id="use301"
             d="m 566.67147,-24.296325 c 0,0.0934 0,0.295766 -0.29576,0.591532 -4.57659,4.654421 -16.82753,17.3723536 -16.82753,48.318804 0,30.946451 12.04857,43.555417 16.93649,48.505604 0,0.108966 0.1868,0.311332 0.1868,0.607098 0,0.295766 -0.29576,0.498132 -0.68493,0.498132 -1.10523,0 -9.57347,-7.347447 -14.44583,-18.275218 -4.98132,-11.005604 -6.38231,-21.715442 -6.38231,-31.226649 0,-7.160648 0.70049,-19.2559156 6.67808,-32.0516814 4.77895,-10.3362386 12.95143,-17.5747196 14.15006,-17.5747196 0.49813,0 0.68493,0.202366 0.68493,0.607098 z"
             style="fill:currentColor;stroke:currentColor;stroke-width:4.9734;stroke-dasharray:none" /><path
             id="use303"
             d="m 597.67142,-10.896638 c -2.69303,-3.720423 -6.56912,-7.036114 -11.45704,-7.036114 -1.19863,0 -5.97758,0 -7.47198,4.094022 0.29577,-0.0934 0.7939,-0.0934 0.99627,-0.0934 2.98879,0 4.98132,2.584059 4.98132,4.8723532 0,2.2882939 -1.88356,3.0821918 -3.37796,3.0821918 -1.60336,0 -5.09029,-1.1519303 -5.09029,-5.837484 0,-4.856787 4.28083,-8.203612 9.96264,-8.203612 9.96264,0 20.03425,9.122042 22.82068,20.11207975 l 9.76027,38.58966325 c 0.0934,0.498132 0.29577,1.105231 0.29577,1.696762 0,1.47883 -1.19863,2.475094 -2.69303,2.475094 -0.8873,0 -2.98879,-0.404733 -3.78269,-3.393525 l -7.36301,-29.218555 c -0.49814,-1.7901616 -0.49814,-1.9925277 -1.3076,-3.0821915 -1.99253,-2.7864259 -5.27709,-6.1643835 -10.05604,-6.1643835 -5.57285,0 -6.07098,5.4638854 -6.07098,8.1569115 0,5.6662515 2.67746,13.3094645 5.37048,20.4701115 1.10523,2.879826 1.69676,4.280822 1.69676,6.257784 0,4.187422 -2.98879,7.954545 -7.87671,7.954545 -9.15317,0 -12.84246,-14.414695 -12.84246,-15.208593 0,-0.389165 0.38916,-0.887297 1.08966,-0.887297 0.90286,0 0.99626,0.389165 1.401,1.790162 2.38169,8.343711 6.17995,12.328767 10.05604,12.328767 0.90286,0 2.59962,0 2.59962,-3.284558 0,-2.58406 -1.10523,-5.463886 -2.59962,-9.246576 -4.87236,-13.029265 -4.87236,-16.298256 -4.87236,-18.695516 0,-9.4333749 6.77148,-11.628269 11.7528,-11.628269 2.87983,0 6.47572,0.90286425 9.96264,4.5765878 l 0.0934,-0.0934 c -1.49439,-5.7752179 -2.49066,-9.589041 -5.97758,-14.3835608 z"
             style="fill:currentColor;stroke:currentColor;stroke-width:4.9734;stroke-dasharray:none" /><path
             id="use305"
             d="m 648.8102,24.614011 c 0,7.145081 -0.7005,19.240349 -6.67808,32.036114 -4.77896,10.336239 -12.95143,17.57472 -14.1345,17.57472 -0.31133,0 -0.7005,-0.108966 -0.7005,-0.607098 0,-0.1868 0.0934,-0.295766 0.20237,-0.498132 4.77895,-4.965754 16.93649,-17.57472 16.93649,-48.458904 0,-30.9931504 -12.06414,-43.602117 -16.93649,-48.583437 -0.10897,-0.186799 -0.20237,-0.295765 -0.20237,-0.482565 0,-0.498132 0.38917,-0.498132 0.7005,-0.498132 1.08967,0 9.55791,7.347447 14.44583,18.2752177 4.98132,11.0056039 6.36675,21.7154423 6.36675,31.2422163 z"
             style="fill:currentColor;stroke:currentColor;stroke-width:4.9734;stroke-dasharray:none" /><path
             id="use307"
             d="m 699.16293,25.202366 c 0,2.895392 -2.39726,5.277086 -5.27708,5.277086 -2.8954,0 -5.29266,-2.381694 -5.29266,-5.277086 0,-2.895392 2.39726,-5.277086 5.29266,-5.277086 2.87982,0 5.27708,2.381694 5.27708,5.277086 z"
             style="fill:currentColor;stroke:currentColor;stroke-width:4.9734;stroke-dasharray:none" /><path
             id="use309"
             d="m 770.28693,68.53985 c -0.7939,1.696762 -1.18306,1.696762 -1.99253,1.696762 -1.18306,0 -1.29203,-0.202366 -1.99252,-1.603362 L 734.03226,1.6967621 C 733.9233,1.494396 733.53413,0.59153175 733.53413,0.498132 733.53413,0.09339975 733.62753,0 735.41769,0 h 65.66003 c 1.79016,0 1.89912,0.09339975 1.89912,0.498132 0,0.0933998 -0.40473,0.996264 -0.49813,1.1986301 z m -4.48319,-5.681818 27.59963,-57.2851803 h -55.29265 z"
             style="fill:currentColor;stroke:currentColor;stroke-width:4.9734;stroke-dasharray:none" /><path
             id="use311"
             d="m 853.99357,40.566625 c -3.19116,-0.607099 -4.38979,-2.988792 -4.38979,-4.872354 0,-2.39726 1.89913,-3.191158 3.28456,-3.191158 2.98879,0 5.09029,2.58406 5.09029,5.277086 0,4.171855 -4.79452,6.055417 -8.96638,6.055417 -6.08655,0 -9.46451,-5.962017 -10.36737,-7.845579 -2.2883,7.845579 -8.46825,7.845579 -10.25841,7.845579 -10.165,0 -15.55106,-13.013698 -15.55106,-15.208593 0,-0.389165 0.40474,-0.887297 1.10523,-0.887297 0.7939,0 0.99627,0.591531 1.19863,0.996264 3.37796,11.036737 10.05604,13.122665 12.95144,13.122665 4.48318,0 5.37048,-4.187422 5.37048,-6.569116 0,-2.179328 -0.59153,-4.467621 -1.79016,-9.246575 l -3.39352,-13.620797 c -1.4944,-5.9620176 -4.37423,-11.425903 -9.65131,-11.425903 -0.49813,0 -2.98879,0 -5.09029,1.2920299 3.59589,0.7004981 4.38979,3.6737235 4.38979,4.8723536 0,1.992528 -1.4944,3.1755915 -3.39352,3.1755915 -2.3817,0 -4.98132,-2.0859277 -4.98132,-5.2615193 0,-4.18742208 4.68555,-6.0709837 8.96637,-6.0709837 4.77896,0 8.17248,3.7826899 10.25841,7.8611456 1.60336,-5.8686176 6.58468,-7.8611456 10.27397,-7.8611456 10.14944,0 15.53549,13.029265 15.53549,15.208593 0,0.498132 -0.40473,0.902864 -0.99626,0.902864 -0.90287,0 -0.99627,-0.498132 -1.29203,-1.29203 -2.69303,-8.7484433 -8.46825,-12.826899 -12.95143,-12.826899 -3.48693,0 -5.38606,2.5840598 -5.38606,6.6625155 0,2.1793275 0.40474,3.7671235 1.99253,10.3362385 l 3.48693,13.511831 c 1.49439,5.977584 4.88792,10.351806 9.4645,10.351806 0.20237,0 2.9888,0 5.09029,-1.29203 z"
             style="fill:currentColor;stroke:currentColor;stroke-width:4.9734;stroke-dasharray:none" /><path
             id="use313"
             d="m 888.39712,24.614011 c 0,7.145081 -0.7005,19.240349 -6.67808,32.036114 -4.77896,10.336239 -12.95143,17.57472 -14.1345,17.57472 -0.31133,0 -0.7005,-0.108966 -0.7005,-0.607098 0,-0.1868 0.0934,-0.295766 0.20237,-0.498132 4.77895,-4.965754 16.93649,-17.57472 16.93649,-48.458904 0,-30.9931504 -12.06414,-43.602117 -16.93649,-48.583437 -0.10897,-0.186799 -0.20237,-0.295765 -0.20237,-0.482565 0,-0.498132 0.38917,-0.498132 0.7005,-0.498132 1.08967,0 9.55791,7.347447 14.44583,18.2752177 4.98132,11.0056039 6.36675,21.7154423 6.36675,31.2422163 z"
             style="fill:currentColor;stroke:currentColor;stroke-width:4.9734;stroke-dasharray:none" /><path
             id="use315"
             d="m 926.56227,58.483527 h -1.25311 c -0.69738,-4.936157 -1.264,-5.775194 -1.53642,-6.200162 -0.34869,-0.555726 -5.37202,-0.555726 -6.35271,-0.555726 h -13.38102 c 2.50622,2.724149 7.38789,7.660305 13.31564,13.381017 4.24967,4.03174 9.20762,8.771758 9.20762,15.669302 0,8.226928 -6.55975,12.95605 -13.88226,12.95605 -7.6712,0 -12.34584,-6.755888 -12.34584,-13.010533 0,-2.724148 2.02676,-3.072839 2.8658,-3.072839 0.69738,0 2.78953,0.424967 2.78953,2.854907 0,2.146629 -1.81973,2.767735 -2.78953,2.767735 -0.42497,0 -0.83904,-0.06538 -1.12235,-0.207035 1.32939,5.938643 5.37202,8.85893 9.63259,8.85893 6.05851,0 10.03576,-4.805397 10.03576,-11.147215 0,-6.058506 -3.55229,-11.277975 -7.52954,-15.810958 L 900.33417,49.297699 v -1.590903 h 24.55002 z"
             style="fill:currentColor;stroke:currentColor;stroke-width:4.9734;stroke-dasharray:none" /><path
             id="use317"
             d="m 989.66205,22.914072 h 26.40095 c 1.3855,0 3.0822,0 3.0822,1.681196 0,1.790161 -1.5878,1.790161 -3.0822,1.790161 h -26.40095 v 26.323163 c 0,1.38543 0,3.082192 -1.69677,3.082192 -1.79016,0 -1.79016,-1.587796 -1.79016,-3.082192 V 26.385429 h -26.40099 c -1.401,0 -3.09776,0 -3.09776,-1.681195 0,-1.790162 1.60336,-1.790162 3.09776,-1.790162 h 26.40099 V -3.3935243 c 0,-1.3854296 0,-3.0821917 1.69676,-3.0821917 1.79017,0 1.79017,1.5877957 1.79017,3.0821917 z"
             style="fill:currentColor;stroke:currentColor;stroke-width:4.9734;stroke-dasharray:none" /><path
             id="use319"
             d="m 1076.4333,-24.296325 c 0,0.0934 0,0.295766 -0.2958,0.591532 -4.5766,4.654421 -16.8275,17.3723536 -16.8275,48.318804 0,30.946451 12.0485,43.555417 16.9365,48.505604 0,0.108966 0.1868,0.311332 0.1868,0.607098 0,0.295766 -0.2958,0.498132 -0.685,0.498132 -1.1052,0 -9.5735,-7.347447 -14.4458,-18.275218 -4.9813,-11.005604 -6.3823,-21.715442 -6.3823,-31.226649 0,-7.160648 0.7005,-19.2559156 6.6781,-32.0516814 4.7789,-10.3362386 12.9514,-17.5747196 14.15,-17.5747196 0.4982,0 0.685,0.202366 0.685,0.607098 z"
             style="fill:currentColor;stroke:currentColor;stroke-width:4.9734;stroke-dasharray:none" /><path
             id="use321"
             d="m 1146.8945,22.914072 c 1.6812,0 3.4869,0 3.4869,1.992528 0,1.992528 -1.8057,1.992528 -3.4869,1.992528 h -53.9072 c -1.6968,0 -3.4869,0 -3.4869,-1.992528 0,-1.992528 1.7901,-1.992528 3.4869,-1.992528 z"
             style="fill:currentColor;stroke:currentColor;stroke-width:4.9734;stroke-dasharray:none" /><path
             id="use323"
             d="m 1205.9511,40.566625 c -3.1911,-0.607099 -4.3897,-2.988792 -4.3897,-4.872354 0,-2.39726 1.8991,-3.191158 3.2845,-3.191158 2.9888,0 5.0903,2.58406 5.0903,5.277086 0,4.171855 -4.7945,6.055417 -8.9664,6.055417 -6.0865,0 -9.4645,-5.962017 -10.3674,-7.845579 -2.2882,7.845579 -8.4682,7.845579 -10.2584,7.845579 -10.165,0 -15.551,-13.013698 -15.551,-15.208593 0,-0.389165 0.4047,-0.887297 1.1052,-0.887297 0.7939,0 0.9963,0.591531 1.1986,0.996264 3.378,11.036737 10.0561,13.122665 12.9515,13.122665 4.4832,0 5.3705,-4.187422 5.3705,-6.569116 0,-2.179328 -0.5916,-4.467621 -1.7902,-9.246575 l -3.3935,-13.620797 c -1.4944,-5.9620176 -4.3742,-11.425903 -9.6513,-11.425903 -0.4982,0 -2.9888,0 -5.0903,1.2920299 3.5959,0.7004981 4.3898,3.6737235 4.3898,4.8723536 0,1.992528 -1.4944,3.1755915 -3.3936,3.1755915 -2.3816,0 -4.9813,-2.0859277 -4.9813,-5.2615193 0,-4.18742208 4.6856,-6.0709837 8.9664,-6.0709837 4.779,0 8.1725,3.7826899 10.2584,7.8611456 1.6034,-5.8686176 6.5847,-7.8611456 10.274,-7.8611456 10.1494,0 15.5355,13.029265 15.5355,15.208593 0,0.498132 -0.4048,0.902864 -0.9963,0.902864 -0.9029,0 -0.9963,-0.498132 -1.292,-1.29203 -2.693,-8.7484433 -8.4683,-12.826899 -12.9515,-12.826899 -3.4869,0 -5.386,2.5840598 -5.386,6.6625155 0,2.1793275 0.4047,3.7671235 1.9925,10.3362385 l 3.4869,13.511831 c 1.4944,5.977584 4.888,10.351806 9.4646,10.351806 0.2023,0 2.9887,0 5.0902,-1.29203 z"
             style="fill:currentColor;stroke:currentColor;stroke-width:4.9734;stroke-dasharray:none" /><path
             id="use325"
             d="m 1261.5513,41.983188 c 0,1.805728 -0.109,1.899128 -0.7005,1.899128 -0.4047,0 -0.4981,-0.0934 -1.6968,-1.587796 -0.2957,-0.404732 -1.1986,-1.416563 -1.4944,-1.805728 -3.1911,3.393524 -7.6743,3.393524 -9.3711,3.393524 -11.0523,0 -15.0373,-5.790785 -15.0373,-11.566003 0,-8.997509 10.165,-11.06787 13.0448,-11.690535 6.2889,-1.276463 8.4682,-1.681195 10.5697,-3.486924 1.2921,-1.183063 3.487,-3.377957 3.487,-6.958281 0,-4.202989 -2.3973,-9.58904125 -11.566,-9.58904125 -8.6551,0 -11.7529,6.56911575 -13.543,15.30199225 -0.2958,1.38543 -0.2958,1.494396 -1.0897,1.494396 -0.8094,0 -0.9028,-0.108966 -0.9028,-2.085928 V 0.98069738 c 0,-1.77459526 0.093,-1.88356163 0.7005,-1.88356163 0.4981,0 0.5915,0.10896637 1.0896,0.90286425 0.6071,0.88729762 2.1015,3.2845579 2.693,4.2963885 1.9926,-2.6930261 5.4795,-5.2926525 11.0524,-5.2926525 9.8692,0 15.1463,5.4016189 15.1463,13.200498 0,5.105853 -2.693,7.798879 -3.9851,8.997509 -2.9888,3.097759 -6.4757,3.798257 -10.6631,4.592155 -5.4795,1.214196 -12.4533,2.615193 -12.4533,8.71731 0,2.584059 1.401,8.094645 11.457,8.094645 10.6632,0 11.2703,-10.00934 11.4571,-13.216065 0.1089,-0.498132 0.6071,-0.607098 0.9028,-0.607098 0.9029,0 0.9029,0.311332 0.9029,2.008094 z"
             style="fill:currentColor;stroke:currentColor;stroke-width:4.9734;stroke-dasharray:none" /><path
             id="use327"
             d="m 1282.0039,60.849937 c 0,2.179328 -1.7902,4.062889 -4.0785,4.062889 -2.1949,0 -4.094,-1.774595 -4.094,-4.062889 0,-2.179327 1.7902,-4.062889 4.094,-4.062889 2.1794,0 4.0785,1.790162 4.0785,4.062889 z m -11.6594,-18.72665 v -2.568493 c 5.5884,0 6.3823,-0.607098 6.3823,-5.354919 V 6.6469489 c 0,-3.7826899 -0.4047,-4.2652553 -6.7715,-4.2652553 V -0.20236613 C 1272.337,0 1276.6178,0 1279.1085,0 c 2.3973,0 6.4757,0 8.7796,-0.20236613 V 2.3816936 c -5.8842,0 -6.0866,0.5915318 -6.0866,4.1562889 V 43.212951 Z"
             style="fill:currentColor;stroke:currentColor;stroke-width:4.9734;stroke-dasharray:none" /><path
             id="use329"
             d="m 1332.7779,30.090286 c 0,5.07472 -0.9963,13.340598 -12.7491,13.340598 -7.8767,0 -11.9552,-6.070984 -13.4496,-10.05604 h -0.1089 v 10.05604 l -11.7528,-1.089664 v -2.58406 c 5.8841,0 6.7714,-0.607098 6.7714,-5.386052 V 6.6625155 c 0,-3.7982565 -0.3891,-4.2808219 -6.7714,-4.2808219 V -0.20236613 C 1297.1147,0 1301.4889,0 1304.0886,0 c 2.584,0 7.0672,0 9.4645,-0.20236613 V 2.3816936 c -6.3823,0 -6.7715,0.3891657 -6.7715,4.2808219 V 25.809464 c 0,9.168742 5.5728,16.033624 12.5467,16.033624 7.3786,0 8.1725,-6.569116 8.1725,-11.363636 V 6.6625155 c 0,-3.7982565 -0.4048,-4.2808219 -6.7715,-4.2808219 V -0.20236613 C 1323.111,0 1327.5008,0 1330.0848,0 c 2.5997,0 7.0828,0 9.4645,-0.20236613 V 2.3816936 c -6.3667,0 -6.7714,0.3891657 -6.7714,4.2808219 z"
             style="fill:currentColor;stroke:currentColor;stroke-width:4.9734;stroke-dasharray:none" /><path
             id="use331"
             d="m 1389.4121,-24.296325 c 0,0.0934 0,0.295766 -0.2958,0.591532 -4.5766,4.654421 -16.8275,17.3723536 -16.8275,48.318804 0,30.946451 12.0485,43.555417 16.9365,48.505604 0,0.108966 0.1868,0.311332 0.1868,0.607098 0,0.295766 -0.2958,0.498132 -0.685,0.498132 -1.1052,0 -9.5735,-7.347447 -14.4458,-18.275218 -4.9813,-11.005604 -6.3823,-21.715442 -6.3823,-31.226649 0,-7.160648 0.7005,-19.2559156 6.6781,-32.0516814 4.7789,-10.3362386 12.9514,-17.5747196 14.15,-17.5747196 0.4982,0 0.685,0.202366 0.685,0.607098 z"
             style="fill:currentColor;stroke:currentColor;stroke-width:4.9734;stroke-dasharray:none" /><path
             id="use333"
             d="m 1420.412,-10.896638 c -2.693,-3.720423 -6.5691,-7.036114 -11.457,-7.036114 -1.1986,0 -5.9776,0 -7.472,4.094022 0.2958,-0.0934 0.7939,-0.0934 0.9963,-0.0934 2.9888,0 4.9813,2.584059 4.9813,4.8723532 0,2.2882939 -1.8836,3.0821918 -3.378,3.0821918 -1.6033,0 -5.0902,-1.1519303 -5.0902,-5.837484 0,-4.856787 4.2808,-8.203612 9.9626,-8.203612 9.9626,0 20.0342,9.122042 22.8207,20.11207975 l 9.7602,38.58966325 c 0.093,0.498132 0.2958,1.105231 0.2958,1.696762 0,1.47883 -1.1986,2.475094 -2.693,2.475094 -0.8873,0 -2.9888,-0.404733 -3.7827,-3.393525 l -7.363,-29.218555 c -0.4982,-1.7901616 -0.4982,-1.9925277 -1.3076,-3.0821915 -1.9925,-2.7864259 -5.2771,-6.1643835 -10.0561,-6.1643835 -5.5728,0 -6.0709,5.4638854 -6.0709,8.1569115 0,5.6662515 2.6774,13.3094645 5.3704,20.4701115 1.1053,2.879826 1.6968,4.280822 1.6968,6.257784 0,4.187422 -2.9888,7.954545 -7.8767,7.954545 -9.1532,0 -12.8425,-14.414695 -12.8425,-15.208593 0,-0.389165 0.3892,-0.887297 1.0897,-0.887297 0.9029,0 0.9963,0.389165 1.401,1.790162 2.3817,8.343711 6.1799,12.328767 10.056,12.328767 0.9029,0 2.5997,0 2.5997,-3.284558 0,-2.58406 -1.1053,-5.463886 -2.5997,-9.246576 -4.8723,-13.029265 -4.8723,-16.298256 -4.8723,-18.695516 0,-9.4333749 6.7715,-11.628269 11.7528,-11.628269 2.8798,0 6.4757,0.90286425 9.9626,4.5765878 l 0.093,-0.0934 c -1.4944,-5.7752179 -2.4906,-9.589041 -5.9776,-14.3835618 z"
             style="fill:currentColor;stroke:currentColor;stroke-width:4.9734;stroke-dasharray:none" /><path
             id="use335"
             d="m 1471.5508,24.614011 c 0,7.145081 -0.7005,19.240349 -6.6781,32.036114 -4.7789,10.336239 -12.9514,17.57472 -14.1344,17.57472 -0.3114,0 -0.7005,-0.108966 -0.7005,-0.607098 0,-0.1868 0.093,-0.295766 0.2023,-0.498132 4.779,-4.965754 16.9365,-17.57472 16.9365,-48.458904 0,-30.9931504 -12.0641,-43.602117 -16.9365,-48.583437 -0.1089,-0.186799 -0.2023,-0.295765 -0.2023,-0.482565 0,-0.498132 0.3891,-0.498132 0.7005,-0.498132 1.0896,0 9.5579,7.347447 14.4458,18.2752177 4.9813,11.0056039 6.3667,21.7154423 6.3667,31.2422163 z"
             style="fill:currentColor;stroke:currentColor;stroke-width:4.9734;stroke-dasharray:none" /><path
             id="use337"
             d="m 1521.9036,25.202366 c 0,2.895392 -2.3973,5.277086 -5.2771,5.277086 -2.8954,0 -5.2927,-2.381694 -5.2927,-5.277086 0,-2.895392 2.3973,-5.277086 5.2927,-5.277086 2.8798,0 5.2771,2.381694 5.2771,5.277086 z"
             style="fill:currentColor;stroke:currentColor;stroke-width:0.0155666" /><path
             id="use339"
             d="m 1593.0276,68.53985 c -0.7939,1.696762 -1.1831,1.696762 -1.9925,1.696762 -1.1831,0 -1.2921,-0.202366 -1.9926,-1.603362 L 1556.7729,1.6967621 C 1556.664,1.494396 1556.2748,0.59153175 1556.2748,0.498132 1556.2748,0.09339975 1556.3682,0 1558.1584,0 h 65.66 c 1.7901,0 1.8991,0.09339975 1.8991,0.498132 0,0.0933998 -0.4047,0.996264 -0.4981,1.1986301 z m -4.4832,-5.681818 27.5996,-57.2851803 h -55.2926 z"
             style="fill:currentColor;stroke:currentColor;stroke-width:4.9734;stroke-dasharray:none" /><path
             id="use341"
             d="m 1655.7036,-10.896638 c -2.693,-3.720423 -6.5691,-7.036114 -11.457,-7.036114 -1.1986,0 -5.9776,0 -7.472,4.094022 0.2958,-0.0934 0.7939,-0.0934 0.9963,-0.0934 2.9888,0 4.9813,2.584059 4.9813,4.8723532 0,2.2882939 -1.8836,3.0821918 -3.378,3.0821918 -1.6033,0 -5.0902,-1.1519303 -5.0902,-5.837484 0,-4.856787 4.2808,-8.203612 9.9626,-8.203612 9.9626,0 20.0342,9.122042 22.8207,20.11207975 l 9.7602,38.58966325 c 0.093,0.498132 0.2958,1.105231 0.2958,1.696762 0,1.47883 -1.1986,2.475094 -2.693,2.475094 -0.8873,0 -2.9888,-0.404733 -3.7827,-3.393525 l -7.363,-29.218555 c -0.4982,-1.7901616 -0.4982,-1.9925277 -1.3076,-3.0821915 -1.9925,-2.7864259 -5.2771,-6.1643835 -10.0561,-6.1643835 -5.5728,0 -6.0709,5.4638854 -6.0709,8.1569115 0,5.6662515 2.6774,13.3094645 5.3704,20.4701115 1.1053,2.879826 1.6968,4.280822 1.6968,6.257784 0,4.187422 -2.9888,7.954545 -7.8767,7.954545 -9.1532,0 -12.8425,-14.414695 -12.8425,-15.208593 0,-0.389165 0.3892,-0.887297 1.0897,-0.887297 0.9029,0 0.9963,0.389165 1.401,1.790162 2.3817,8.343711 6.1799,12.328767 10.056,12.328767 0.9029,0 2.5997,0 2.5997,-3.284558 0,-2.58406 -1.1053,-5.463886 -2.5997,-9.246576 -4.8723,-13.029265 -4.8723,-16.298256 -4.8723,-18.695516 0,-9.4333749 6.7715,-11.628269 11.7528,-11.628269 2.8798,0 6.4757,0.90286425 9.9626,4.5765878 l 0.093,-0.0934 c -1.4944,-5.7752179 -2.4906,-9.589041 -5.9776,-14.3835618 z"
             style="fill:currentColor;stroke:currentColor;stroke-width:4.9734;stroke-dasharray:none" /><path
             id="use343"
             d="m 1706.8424,24.614011 c 0,7.145081 -0.7005,19.240349 -6.6781,32.036114 -4.7789,10.336239 -12.9514,17.57472 -14.1344,17.57472 -0.3114,0 -0.7005,-0.108966 -0.7005,-0.607098 0,-0.1868 0.093,-0.295766 0.2023,-0.498132 4.779,-4.965754 16.9365,-17.57472 16.9365,-48.458904 0,-30.9931504 -12.0641,-43.602117 -16.9365,-48.583437 -0.1089,-0.186799 -0.2023,-0.295765 -0.2023,-0.482565 0,-0.498132 0.3891,-0.498132 0.7005,-0.498132 1.0896,0 9.5579,7.347447 14.4458,18.2752177 4.9813,11.0056039 6.3667,21.7154423 6.3667,31.2422163 z"
             style="fill:currentColor;stroke:currentColor;stroke-width:4.9734;stroke-dasharray:none" /><path
             id="use345"
             d="m 1745.0076,58.483527 h -1.2531 c -0.6974,-4.936157 -1.264,-5.775194 -1.5364,-6.200162 -0.3487,-0.555726 -5.372,-0.555726 -6.3527,-0.555726 h -13.3811 c 2.5063,2.724149 7.3879,7.660305 13.3157,13.381017 4.2497,4.03174 9.2076,8.771758 9.2076,15.669302 0,8.226928 -6.5597,12.95605 -13.8823,12.95605 -7.6712,0 -12.3458,-6.755888 -12.3458,-13.010533 0,-2.724148 2.0268,-3.072839 2.8658,-3.072839 0.6974,0 2.7895,0.424967 2.7895,2.854907 0,2.146629 -1.8197,2.767735 -2.7895,2.767735 -0.425,0 -0.839,-0.06538 -1.1223,-0.207035 1.3293,5.938643 5.372,8.85893 9.6326,8.85893 6.0585,0 10.0357,-4.805397 10.0357,-11.147215 0,-6.058506 -3.5523,-11.277975 -7.5295,-15.810958 l -13.8823,-15.669301 v -1.590903 h 24.55 z"
             style="fill:currentColor;stroke:currentColor;stroke-width:4.9734;stroke-dasharray:none" /><path
             d="M 362.32938,124.08315 H 1748.4059 v 3.98495 H 362.32938 Z"
             id="path347"
             style="fill:currentColor;stroke:currentColor;stroke-width:4.9734;stroke-dasharray:none" /></g></g></g></g></svg>
