<?xml version="1.0" encoding="UTF-8" standalone="no"?>
<!-- Created with Inkscape (http://www.inkscape.org/) -->

<svg
   width="64"
   height="32"
   viewBox="0 0 16.933332 8.4666664"
   version="1.1"
   id="svg5"
   inkscape:version="1.2.2 (732a01da63, 2022-12-09)"
   sodipodi:docname="banner.proj.svg"
   inkscape:export-filename="banner.png"
   inkscape:export-xdpi="1536"
   inkscape:export-ydpi="1536"
   xmlns:inkscape="http://www.inkscape.org/namespaces/inkscape"
   xmlns:sodipodi="http://sodipodi.sourceforge.net/DTD/sodipodi-0.dtd"
   xmlns:xlink="http://www.w3.org/1999/xlink"
   xmlns="http://www.w3.org/2000/svg"
   xmlns:svg="http://www.w3.org/2000/svg">
  <sodipodi:namedview
     id="namedview7"
     pagecolor="#ffffff"
     bordercolor="#000000"
     borderopacity="0.25"
     inkscape:showpageshadow="2"
     inkscape:pageopacity="0.0"
     inkscape:pagecheckerboard="0"
     inkscape:deskcolor="#d1d1d1"
     inkscape:document-units="mm"
     showgrid="false"
     inkscape:zoom="8"
     inkscape:cx="-34.8125"
     inkscape:cy="30.875"
     inkscape:window-width="2498"
     inkscape:window-height="1417"
     inkscape:window-x="54"
     inkscape:window-y="-8"
     inkscape:window-maximized="1"
     inkscape:current-layer="layer1">
    <inkscape:grid
       type="xygrid"
       id="grid1065"
       color="#404040"
       opacity="0.14901961"
       empcolor="#232323"
       empopacity="0.30196078"
       enabled="true"
       originx="0"
       originy="0" />
  </sodipodi:namedview>
  <defs
     id="defs2">
    <linearGradient
       inkscape:collect="always"
       id="linearGradient6454">
      <stop
         style="stop-color:#1f1f1f;stop-opacity:1;"
         offset="0"
         id="stop6450" />
      <stop
         style="stop-color:#000000;stop-opacity:1;"
         offset="1"
         id="stop6452" />
    </linearGradient>
    <linearGradient
       inkscape:collect="always"
       id="linearGradient6446">
      <stop
         style="stop-color:#1f1f1f;stop-opacity:1;"
         offset="0"
         id="stop6442" />
      <stop
         style="stop-color:#000000;stop-opacity:1;"
         offset="1"
         id="stop6444" />
    </linearGradient>
    <linearGradient
       inkscape:collect="always"
       id="linearGradient6438">
      <stop
         style="stop-color:#1f1f1f;stop-opacity:1;"
         offset="0"
         id="stop6434" />
      <stop
         style="stop-color:#000000;stop-opacity:1;"
         offset="1"
         id="stop6436" />
    </linearGradient>
    <linearGradient
       inkscape:collect="always"
       id="linearGradient6430">
      <stop
         style="stop-color:#1f1f1f;stop-opacity:1;"
         offset="0"
         id="stop6426" />
      <stop
         style="stop-color:#000000;stop-opacity:1;"
         offset="1"
         id="stop6428" />
    </linearGradient>
    <linearGradient
       inkscape:collect="always"
       id="linearGradient6422">
      <stop
         style="stop-color:#1f1f1f;stop-opacity:1;"
         offset="0"
         id="stop6418" />
      <stop
         style="stop-color:#000000;stop-opacity:1;"
         offset="1"
         id="stop6420" />
    </linearGradient>
    <inkscape:path-effect
       effect="spiro"
       id="path-effect7283"
       is_visible="true"
       lpeversion="1" />
    <inkscape:path-effect
       effect="spiro"
       id="path-effect6549"
       is_visible="true"
       lpeversion="1" />
    <inkscape:path-effect
       effect="spiro"
       id="path-effect6545"
       is_visible="true"
       lpeversion="1" />
    <inkscape:path-effect
       effect="spiro"
       id="path-effect6541"
       is_visible="true"
       lpeversion="1" />
    <inkscape:path-effect
       effect="bspline"
       id="path-effect2061"
       is_visible="true"
       lpeversion="1"
       weight="33.333333"
       steps="2"
       helper_size="0"
       apply_no_weight="true"
       apply_with_weight="true"
       only_selected="false" />
    <inkscape:path-effect
       effect="bspline"
       id="path-effect2057"
       is_visible="true"
       lpeversion="1"
       weight="33.333333"
       steps="2"
       helper_size="0"
       apply_no_weight="true"
       apply_with_weight="true"
       only_selected="false" />
    <pattern
       id="EMFhbasepattern"
       patternUnits="userSpaceOnUse"
       width="6"
       height="6"
       x="0"
       y="0" />
    <pattern
       id="EMFhbasepattern-4"
       patternUnits="userSpaceOnUse"
       width="6"
       height="6"
       x="0"
       y="0" />
    <linearGradient
       inkscape:collect="always"
       xlink:href="#linearGradient2310"
       id="linearGradient2312"
       x1="15.750362"
       y1="9.0361509"
       x2="14.544832"
       y2="8.5018883"
       gradientUnits="userSpaceOnUse"
       gradientTransform="translate(1.1689544,-2.9646567)" />
    <linearGradient
       inkscape:collect="always"
       id="linearGradient2310">
      <stop
         style="stop-color:#b3b3b3;stop-opacity:1;"
         offset="0"
         id="stop2306" />
      <stop
         style="stop-color:#e6e6e6;stop-opacity:1;"
         offset="1"
         id="stop2308" />
    </linearGradient>
    <linearGradient
       inkscape:collect="always"
       xlink:href="#linearGradient2332"
       id="linearGradient2334"
       x1="9.931778"
       y1="4.6729612"
       x2="15.465494"
       y2="8.1343861"
       gradientUnits="userSpaceOnUse"
       gradientTransform="translate(1.1689544,-2.9646567)" />
    <linearGradient
       inkscape:collect="always"
       id="linearGradient2332">
      <stop
         style="stop-color:#909090;stop-opacity:1;"
         offset="0"
         id="stop2328" />
      <stop
         style="stop-color:#666666;stop-opacity:1;"
         offset="1"
         id="stop2330" />
    </linearGradient>
    <linearGradient
       inkscape:collect="always"
       xlink:href="#linearGradient4674"
       id="linearGradient4676"
       x1="12.150324"
       y1="10.100171"
       x2="17.706573"
       y2="12.746004"
       gradientUnits="userSpaceOnUse"
       gradientTransform="translate(1.1689544,-2.9646567)" />
    <linearGradient
       inkscape:collect="always"
       id="linearGradient4674">
      <stop
         style="stop-color:#8b0000;stop-opacity:1;"
         offset="0"
         id="stop4670" />
      <stop
         style="stop-color:#330000;stop-opacity:1;"
         offset="1"
         id="stop4672" />
    </linearGradient>
    <linearGradient
       inkscape:collect="always"
       xlink:href="#linearGradient4785"
       id="linearGradient4775"
       x1="10.033657"
       y1="7.189754"
       x2="15.85449"
       y2="10.100171"
       gradientUnits="userSpaceOnUse" />
    <linearGradient
       inkscape:collect="always"
       id="linearGradient4785">
      <stop
         style="stop-color:#1f1f1f;stop-opacity:1;"
         offset="0"
         id="stop4781" />
      <stop
         style="stop-color:#000000;stop-opacity:1;"
         offset="1"
         id="stop4783" />
    </linearGradient>
    <linearGradient
       inkscape:collect="always"
       xlink:href="#linearGradient6422"
       id="linearGradient6424"
       x1="8.9748793"
       y1="5.2696705"
       x2="11.795116"
       y2="6.3728399"
       gradientUnits="userSpaceOnUse" />
    <linearGradient
       inkscape:collect="always"
       xlink:href="#linearGradient6430"
       id="linearGradient6432"
       x1="10.535862"
       y1="5.414885"
       x2="14.370802"
       y2="7.0970988"
       gradientUnits="userSpaceOnUse" />
    <linearGradient
       inkscape:collect="always"
       xlink:href="#linearGradient6438"
       id="linearGradient6440"
       x1="11.873556"
       y1="5.3993874"
       x2="14.77608"
       y2="6.5097322"
       gradientUnits="userSpaceOnUse" />
    <linearGradient
       inkscape:collect="always"
       xlink:href="#linearGradient6446"
       id="linearGradient6448"
       x1="7.274838"
       y1="5.8064742"
       x2="8.818759"
       y2="6.9508095"
       gradientUnits="userSpaceOnUse" />
    <linearGradient
       inkscape:collect="always"
       xlink:href="#linearGradient6454"
       id="linearGradient6456"
       x1="5.7101159"
       y1="5.8433414"
       x2="7.8780637"
       y2="7.1123071"
       gradientUnits="userSpaceOnUse" />
  </defs>
  <g
     inkscape:label="Layer 1"
     inkscape:groupmode="layer"
     id="layer1"
     transform="translate(-0.61927874,-1.3146808)">
    <path
       style="fill:url(#linearGradient2312);fill-opacity:1;stroke:none;stroke-width:0.141268;stroke-linecap:round;stroke-dasharray:none;stroke-opacity:1"
       d="m 13.357356,2.4889718 3.242284,-0.3531699 0.95297,1.8247125 -1.5875,5.2916659 -3.175,0.529167 -2.8959956,-8.01e-4 -0.56095,-4.1944628 z"
       id="path2198"
       sodipodi:nodetypes="cccccccc" />
    <path
       style="fill:url(#linearGradient2334);fill-opacity:1;stroke:none;stroke-width:0.141268;stroke-linecap:round;stroke-dasharray:none;stroke-opacity:1"
       d="M 0.61927874,5.1015298 0.98737833,7.8796129 9.6532566,7.9795497 12.897716,7.4498733 15.242975,3.2912244 12.677414,3.012271 6.211549,3.6508562 4.1498126,1.3146808 H 1.9841639 L 0.61927874,2.836035 Z"
       id="path2195"
       sodipodi:nodetypes="ccccccccccc" />
    <path
       id="path4660"
       style="fill:#000000;fill-opacity:0.2;stroke:none;stroke-width:0.167948;stroke-linecap:round;stroke-dasharray:none"
       d="m 15.616531,3.2091793 c -0.17856,-0.00166 -0.342306,0.02184 -0.475154,0.08212 -0.758796,0.3443022 -1.127462,1.2022795 -1.420958,2.0446875 l -0.83164,-1.0281589 -0.622069,0.5033993 1.147777,1.4185826 c -0.320212,0.9223156 -0.710049,1.9783766 -1.571905,2.3764876 -0.56894,0.262808 -1.736406,-0.606569 -1.736406,-0.606569 0,0 0.943941,1.726683 1.690506,1.649393 1.139309,-0.117948 1.967913,-1.391484 2.376821,-2.480869 l 1.096986,1.355926 0.62207,-0.503399 -1.455848,-1.7997506 c 0.264544,-1.0106174 0.814716,-1.798045 1.605136,-2.3107459 0.395664,-0.2566472 1.378608,-0.179472 1.378608,-0.179472 0,0 -1.03015,-0.5145588 -1.803924,-0.5216316 z"
       sodipodi:nodetypes="ccccccscsccccscc"
       inkscape:label="shadow x" />
    <path
       id="path11064"
       style="fill:url(#linearGradient4676);fill-opacity:1;stroke:none;stroke-width:0.167948;stroke-linecap:round;stroke-dasharray:none"
       d="m 15.484306,3.0768213 c -0.17856,-0.00166 -0.342306,0.02184 -0.475154,0.08212 -0.758796,0.3443022 -1.127462,1.2022795 -1.420958,2.0446875 l -0.83164,-1.0281589 -0.622069,0.5033993 1.147777,1.4185826 c -0.320212,0.9223169 -0.710049,1.9783776 -1.571905,2.3764886 -0.568941,0.262808 -1.7364066,-0.606569 -1.7364066,-0.606569 0,0 0.9439396,1.726683 1.6905066,1.649393 1.139309,-0.117948 1.967913,-1.391484 2.376821,-2.480869 l 1.096986,1.355926 0.62207,-0.503399 -1.455848,-1.7997516 c 0.264544,-1.0106174 0.814716,-1.798045 1.605136,-2.3107459 0.395664,-0.2566472 1.378608,-0.179472 1.378608,-0.179472 0,0 -1.03015,-0.5145588 -1.803924,-0.5216316 z"
       sodipodi:nodetypes="ccccccscsccccscc"
       inkscape:label="letter x" />
    <path
       id="path6396"
       style="font-size:4.39076px;font-family:Calibri;-inkscape-font-specification:Calibri;fill:url(#linearGradient6440);stroke-width:0.0690377;stroke-linecap:butt;color:#000000;-inkscape-stroke:none;fill-opacity:1"
       d="M 11.795116 3.7364203 L 11.795116 4.2501613 L 11.828182 4.2501613 L 12.247905 4.2501613 L 12.247905 3.7364203 L 11.795116 3.7364203 z M 11.795116 4.6036711 L 11.795116 6.9490538 L 11.828182 6.9490538 L 12.247905 6.9490538 L 12.247905 4.6036711 L 11.795116 4.6036711 z "
       transform="scale(0.96895655,1.032038)"
       inkscape:label="letter i" />
    <path
       id="path6390"
       style="font-size:4.39076px;font-family:Calibri;-inkscape-font-specification:Calibri;fill:url(#linearGradient6432);stroke-width:0.0690377;stroke-linecap:butt;color:#000000;-inkscape-stroke:none;fill-opacity:1"
       d="M 9.3477084 4.6036711 L 10.240487 6.9490538 L 10.26342 6.9490538 L 10.646344 6.9490538 L 11.535389 4.6036711 L 11.064467 4.6036711 L 10.550879 6.0137048 C 10.503579 6.1435004 10.470803 6.2461845 10.439415 6.3476865 C 10.403355 6.2259423 10.367622 6.1030632 10.326351 5.988168 L 9.8282301 4.6036711 L 9.3477084 4.6036711 z "
       transform="scale(0.96895655,1.032038)"
       inkscape:label="letter v" />
    <path
       id="path6384"
       style="font-size:4.39076px;font-family:Calibri;-inkscape-font-specification:Calibri;fill:url(#linearGradient6424);stroke-width:0.0690377;stroke-linecap:butt;color:#000000;-inkscape-stroke:none;fill-opacity:1"
       d="M 8.6229259 3.7364203 L 8.6229259 4.2501613 L 8.6581251 4.2501613 L 9.0783816 4.2501613 L 9.0783816 3.7364203 L 8.6229259 3.7364203 z M 8.6229259 4.6036711 L 8.6229259 6.9490538 L 8.6581251 6.9490538 L 9.0783816 6.9490538 L 9.0783816 4.6036711 L 8.6229259 4.6036711 z "
       transform="scale(0.96895655,1.032038)"
       inkscape:label="letter i" />
    <path
       id="path6378"
       style="font-size:4.39076px;font-family:Calibri;-inkscape-font-specification:Calibri;fill:url(#linearGradient6448);stroke-width:0.0690377;stroke-linecap:butt;color:#000000;-inkscape-stroke:none;fill-opacity:1"
       d="M 8.0293403 4.5505946 C 7.9327204 4.5505946 7.8426241 4.57969 7.7616135 4.6347159 C 7.6996975 4.6775809 7.6347387 4.7791058 7.5701514 4.8810712 L 7.5701514 4.6036711 L 7.1541615 4.6036711 L 7.1541615 6.9490538 L 7.1893606 6.9490538 L 7.6096171 6.9490538 L 7.6096171 5.7227852 C 7.6096171 5.5628752 7.6302977 5.4146463 7.6720156 5.2811482 C 7.6987996 5.1967783 7.7415788 5.1353721 7.8026791 5.0898724 L 7.8048124 5.0898724 C 7.8664533 5.0426584 7.9323006 5.0197713 8.0096075 5.0197713 C 8.0971414 5.0197713 8.1852071 5.044706 8.275201 5.0978839 L 8.3104002 5.1189143 L 8.4687963 4.6953033 L 8.443197 4.6817838 C 8.3046082 4.5962716 8.1667386 4.5505946 8.0293403 4.5505946 z "
       transform="scale(0.96895655,1.032038)"
       inkscape:label="letter r" />
    <path
       id="path6372"
       style="font-size:4.39076px;font-family:Calibri;-inkscape-font-specification:Calibri;fill:url(#linearGradient6456);stroke-width:0.0690377;stroke-linecap:butt;color:#000000;-inkscape-stroke:none;fill-opacity:1"
       d="M 5.685397 4.5505946 C 5.3632147 4.5505946 5.0958299 4.6608432 4.8923496 4.8790683 C 4.6880216 5.0982028 4.5878236 5.405917 4.5878236 5.7948892 C 4.5878236 6.1711148 4.6871412 6.4683412 4.8886163 6.6816682 L 4.8886163 6.6836711 C 5.0911904 6.8951203 5.367179 7.0001275 5.7072632 7.0001275 C 5.9772779 7.0001275 6.2038985 6.9346666 6.3808469 6.8008401 C 6.5572953 6.6673918 6.6779259 6.477518 6.7424381 6.2385291 L 6.7520379 6.2009749 L 6.2869825 6.1423904 L 6.2773827 6.1699301 C 6.2203338 6.328554 6.1436676 6.4408749 6.0507215 6.5099205 C 5.9569256 6.5795984 5.8443183 6.6130694 5.7088631 6.6130693 C 5.5268145 6.6130693 5.3789416 6.552517 5.2576741 6.4257992 C 5.1452039 6.3082742 5.0901018 6.1295719 5.0704786 5.9080524 L 6.7541712 5.9080524 L 6.7541712 5.8750048 C 6.7556012 5.8290888 6.7557711 5.7949418 6.7557711 5.7713553 C 6.7557711 5.3895482 6.6571567 5.0879233 6.4571117 4.8730597 C 6.2579924 4.6591874 5.9976667 4.5505946 5.685397 4.5505946 z M 5.6896636 4.9376528 C 5.8767404 4.9376528 6.0252711 5.0067485 6.1424526 5.1484569 C 6.2089986 5.2280738 6.2452062 5.360787 6.2656497 5.5214949 L 5.0939447 5.5214949 C 5.1129947 5.3514954 5.1634791 5.208481 5.2678072 5.1053948 C 5.3830192 4.993531 5.5208098 4.9376528 5.6896636 4.9376528 z "
       transform="scale(0.96895655,1.032038)"
       inkscape:label="letter e" />
    <path
       id="path4657"
       style="color:#000000;font-size:7.37694px;font-family:'Cambria Math';-inkscape-font-specification:'Cambria Math';fill:#000000;fill-opacity:0.2;stroke:none;stroke-width:0.423712;stroke-linecap:butt;-inkscape-stroke:none"
       d="m 3.3089383,1.7131433 c -0.16483,0 -0.32171,0.01957 -0.46871,0.0584 -0.14288,0.03847 -0.28554,0.09687 -0.425812,0.173633 -0.13932,0.07518 -0.31811,0.190768 -0.5488,0.353466 l -0.0899,0.0646 v 0.621151 h 0.57051 l 0.0646,-0.07597 c 0.131602,-0.157929 0.257852,-0.267099 0.376722,-0.332283 h 0.002 c 0.12091,-0.06718 0.2451,-0.09974 0.38654,-0.09974 0.11348,0 0.18629,0.02222 0.23822,0.05684 l 0.004,0.0021 0.002,0.0021 c 0.0598,0.03741 0.10757,0.09067 0.14832,0.1757 l 0.002,0.0021 v 0.0021 c 0.0448,0.08771 0.0799,0.200549 0.10128,0.341582 0.0221,0.14564 0.0331,0.31348 0.0331,0.501778 0,0.01336 -10e-4,0.0347 -10e-4,0.04909 -0.0566,-0.02647 -0.11591,-0.07511 -0.17208,-0.09198 -0.1554,-0.04892 -0.32771,-0.07235 -0.51728,-0.07235 -0.29126,0 -0.570791,0.07362 -0.826313,0.214974 h -0.002 c -0.250071,0.1398271 -0.46497,0.334006 -0.6444,0.574125 h -0.002 c -0.175249,0.235411 -0.3076596,0.4991689 -0.3984296,0.7870331 -0.09,0.2833401 -0.136939,0.573134 -0.136939,0.863513 0,0.2972921 0.0501,0.5614531 0.158649,0.787032 0.10841,0.2225236 0.2767696,0.4025209 0.4898896,0.5234829 l 0.002,0.0021 c 0.21344,0.118256 0.46105,0.173633 0.73225,0.173633 0.264152,0 0.509122,-0.04609 0.728642,-0.14056 v 0.0021 c 0.21693,-0.0922 0.41082,-0.2246537 0.57619,-0.3927418 0.16413,-0.166817 0.30788,-0.3722101 0.43564,-0.614949 0.12917,-0.245425 0.23953,-0.53742 0.33383,-0.874882 0.0937,-0.335363 0.15959,-0.657413 0.19947,-0.968933 v -0.0021 c 0.0392,-0.308892 0.0605,-0.575731 0.0605,-0.8066701 0,-0.5777929 -0.10013,-1.034535 -0.34003,-1.361157 -0.23911,-0.328633 -0.62306,-0.498161 -1.07229,-0.498161 z m -0.18759,2.441195 c 0.1659,0 0.24707,0.03943 0.29714,0.0956 l 0.002,0.0021 c 0.0483,0.05288 0.0956,0.172748 0.0956,0.388607 0,0.202001 -0.0593,0.519182 -0.18552,0.9260421 -0.12401,0.3966059 -0.27316,0.6824969 -0.42788,0.857312 -0.14953,0.169203 -0.30073,0.238228 -0.503842,0.238228 -0.0873,0 -0.14504,-0.01739 -0.1819,-0.03927 -0.023,-0.01365 -0.0591,-0.0527 -0.0956,-0.14211 -0.031,-0.08464 -0.0548,-0.232578 -0.0548,-0.4320149 0,-0.1952501 0.0174,-0.3794841 0.0527,-0.556555 v -0.0021 c 0.0385,-0.182941 0.0911,-0.362617 0.15658,-0.5389851 v -0.0021 c 0.0659,-0.170865 0.14584,-0.317432 0.238222,-0.441317 0.091,-0.122022 0.1879,-0.207538 0.29094,-0.265617 0.10571,-0.0604 0.20683,-0.08785 0.31626,-0.08785 z"
       sodipodi:nodetypes="ccccccccccsccccccssccscccccscccsccsssccsccccccsccsscsccccsccc"
       inkscape:label="shadow d" />
    <path
       id="path4745"
       style="color:#000000;font-size:7.37694px;font-family:'Cambria Math';-inkscape-font-specification:'Cambria Math';fill:url(#linearGradient4775);fill-opacity:1;stroke:none;stroke-width:0.423712;stroke-linecap:butt;-inkscape-stroke:none"
       class="UnoptimicedTransforms"
       d="m 10.687364,4.5449544 c -0.16483,0 -0.321712,0.019566 -0.468705,0.058394 h -0.0021 C 10.073743,4.641817 9.9331171,4.7007454 9.792845,4.7774983 v -0.00207 C 9.6533334,4.8505777 9.4736204,4.9675937 9.2419742,5.1309651 l -0.0894,0.064596 v 0.620634 h 0.569991 l 0.064596,-0.075964 C 9.9187647,5.5823037 10.047084,5.4731346 10.165949,5.4079508 c 0.120917,-0.067177 0.2451,-0.099219 0.38654,-0.099219 0.113477,0 0.188364,0.021706 0.240295,0.056327 l 0.0021,0.00207 0.0021,0.00207 c 0.05985,0.037409 0.107564,0.090669 0.148311,0.1756998 l 0.0021,0.00207 v 0.00207 c 0.04479,0.087706 0.08043,0.2005483 0.101803,0.3415813 0.02207,0.1456397 0.03514,0.3134802 0.03514,0.5017781 0,0.013354 -0.0019,0.034708 -0.0021,0.049093 C 11.025148,6.414702 10.965277,6.366521 10.908605,6.349507 10.753208,6.300586 10.580378,6.27716 10.390807,6.27716 10.099546,6.27716 9.820021,6.350782 9.5645012,6.4921339 9.3141972,6.6319499 9.0973929,6.8261279 8.917963,7.0662475 8.742713,7.3016581 8.6082385,7.5654161 8.5174706,7.8532796 8.4275202,8.13662 8.3825952,8.4264157 8.3825952,8.7167927 c 0,0.2972922 0.048073,0.5614531 0.1565795,0.7870321 h 0.00207 c 0.1084053,0.222522 0.2747006,0.40252 0.4878255,0.5234822 h 0.00207 v 0.0021 c 0.2134396,0.118257 0.4615695,0.173633 0.7327718,0.173633 0.264144,0 0.508599,-0.04608 0.728121,-0.14056 v 0.0021 C 10.708964,9.972384 10.902851,9.8399264 11.068225,9.6718392 11.232351,9.505023 11.3761,9.2996299 11.503858,9.0568897 c 0.129172,-0.2454246 0.23954,-0.5374188 0.333829,-0.874882 0.09371,-0.3353626 0.161665,-0.6574115 0.201539,-0.9689331 v -0.00207 c 0.03922,-0.3088916 0.05839,-0.5757312 0.05839,-0.8066691 0,-0.5777924 -0.100128,-1.0345353 -0.340031,-1.3611572 C 11.518486,4.714544 11.136595,4.5449544 10.687364,4.5449544 Z M 10.499779,6.986149 c 0.165895,0 0.245002,0.039943 0.295072,0.096118 l 0.0021,0.00155 c 0.04828,0.052881 0.0956,0.1727483 0.0956,0.3886068 0,0.2019995 -0.05925,0.5191809 -0.185518,0.9260416 -0.124013,0.3966046 -0.273159,0.682497 -0.427881,0.857312 -0.149527,0.1692022 -0.3007332,0.2382284 -0.503845,0.2382284 -0.087312,0 -0.1424586,-0.016872 -0.1793172,-0.038757 C 9.5729198,9.4416 9.5347493,9.4020419 9.4982893,9.312622 9.4673094,9.2279791 9.4435123,9.0800428 9.4435123,8.880607 c 0,-0.1952504 0.01743,-0.3794846 0.05271,-0.5565551 v -0.00155 c 0.03849,-0.1829436 0.090589,-0.3631342 0.1560628,-0.539502 v -0.00155 c 0.065845,-0.1708651 0.145839,-0.3179478 0.2382283,-0.4418335 0.091,-0.122022 0.1878956,-0.2075383 0.2909386,-0.2656168 h 0.0021 c 0.105657,-0.060403 0.206823,-0.08785 0.31626,-0.08785 z"
       inkscape:label="lettter d"
       transform="translate(-7.5095873,-2.9646567)" />
  </g>
</svg>
