<?xml version="1.0" encoding="UTF-8" standalone="no"?>
<!-- Created with Inkscape (http://www.inkscape.org/) -->

<svg
   width="32"
   height="32"
   viewBox="0 0 8.4666666 8.4666664"
   version="1.1"
   id="svg5"
   inkscape:version="1.2.2 (732a01da63, 2022-12-09)"
   sodipodi:docname="icon.proj.svg"
   inkscape:export-filename="icon.png"
   inkscape:export-xdpi="384"
   inkscape:export-ydpi="384"
   xmlns:inkscape="http://www.inkscape.org/namespaces/inkscape"
   xmlns:sodipodi="http://sodipodi.sourceforge.net/DTD/sodipodi-0.dtd"
   xmlns:xlink="http://www.w3.org/1999/xlink"
   xmlns="http://www.w3.org/2000/svg"
   xmlns:svg="http://www.w3.org/2000/svg">
  <sodipodi:namedview
     id="namedview7"
     pagecolor="#a3a3a3"
     bordercolor="#000000"
     borderopacity="0.25"
     inkscape:showpageshadow="2"
     inkscape:pageopacity="0"
     inkscape:pagecheckerboard="0"
     inkscape:deskcolor="#d1d1d1"
     inkscape:document-units="mm"
     showgrid="true"
     inkscape:zoom="22.627417"
     inkscape:cx="10.761281"
     inkscape:cy="16.528621"
     inkscape:window-width="2498"
     inkscape:window-height="1417"
     inkscape:window-x="54"
     inkscape:window-y="-8"
     inkscape:window-maximized="1"
     inkscape:current-layer="layer1">
    <inkscape:grid
       type="xygrid"
       id="grid1065"
       color="#404040"
       opacity="0.14901961"
       empcolor="#232323"
       empopacity="0.30196078"
       enabled="true"
       originx="0"
       originy="0"
       empspacing="4" />
  </sodipodi:namedview>
  <defs
     id="defs2">
    <linearGradient
       inkscape:collect="always"
       id="linearGradient4785">
      <stop
         style="stop-color:#1f1f1f;stop-opacity:1;"
         offset="0"
         id="stop4781" />
      <stop
         style="stop-color:#000000;stop-opacity:1;"
         offset="1"
         id="stop4783" />
    </linearGradient>
    <linearGradient
       inkscape:collect="always"
       id="linearGradient4773">
      <stop
         style="stop-color:#1a1a1a;stop-opacity:1;"
         offset="0"
         id="stop4769" />
      <stop
         style="stop-color:#000000;stop-opacity:1;"
         offset="1"
         id="stop4771" />
    </linearGradient>
    <linearGradient
       inkscape:collect="always"
       id="linearGradient4682">
      <stop
         style="stop-color:#1a1a1a;stop-opacity:1;"
         offset="0"
         id="stop4678" />
      <stop
         style="stop-color:#171717;stop-opacity:1;"
         offset="1"
         id="stop4680" />
    </linearGradient>
    <linearGradient
       inkscape:collect="always"
       id="linearGradient4674">
      <stop
         style="stop-color:#8b0000;stop-opacity:1;"
         offset="0"
         id="stop4670" />
      <stop
         style="stop-color:#330000;stop-opacity:1;"
         offset="1"
         id="stop4672" />
    </linearGradient>
    <linearGradient
       inkscape:collect="always"
       id="linearGradient2332">
      <stop
         style="stop-color:#909090;stop-opacity:1;"
         offset="0"
         id="stop2328" />
      <stop
         style="stop-color:#666666;stop-opacity:1;"
         offset="1"
         id="stop2330" />
    </linearGradient>
    <linearGradient
       inkscape:collect="always"
       id="linearGradient2310">
      <stop
         style="stop-color:#b3b3b3;stop-opacity:1;"
         offset="0"
         id="stop2306" />
      <stop
         style="stop-color:#e6e6e6;stop-opacity:1;"
         offset="1"
         id="stop2308" />
    </linearGradient>
    <inkscape:path-effect
       effect="spiro"
       id="path-effect7283"
       is_visible="true"
       lpeversion="1" />
    <inkscape:path-effect
       effect="spiro"
       id="path-effect6549"
       is_visible="true"
       lpeversion="1" />
    <inkscape:path-effect
       effect="spiro"
       id="path-effect6545"
       is_visible="true"
       lpeversion="1" />
    <inkscape:path-effect
       effect="spiro"
       id="path-effect6541"
       is_visible="true"
       lpeversion="1" />
    <inkscape:path-effect
       effect="bspline"
       id="path-effect2061"
       is_visible="true"
       lpeversion="1"
       weight="33.333333"
       steps="2"
       helper_size="0"
       apply_no_weight="true"
       apply_with_weight="true"
       only_selected="false" />
    <inkscape:path-effect
       effect="bspline"
       id="path-effect2057"
       is_visible="true"
       lpeversion="1"
       weight="33.333333"
       steps="2"
       helper_size="0"
       apply_no_weight="true"
       apply_with_weight="true"
       only_selected="false" />
    <pattern
       id="EMFhbasepattern"
       patternUnits="userSpaceOnUse"
       width="6"
       height="6"
       x="0"
       y="0" />
    <pattern
       id="EMFhbasepattern-4"
       patternUnits="userSpaceOnUse"
       width="6"
       height="6"
       x="0"
       y="0" />
    <linearGradient
       inkscape:collect="always"
       xlink:href="#linearGradient2310"
       id="linearGradient2312"
       x1="15.750362"
       y1="9.0361509"
       x2="14.544832"
       y2="8.5018883"
       gradientUnits="userSpaceOnUse" />
    <linearGradient
       inkscape:collect="always"
       xlink:href="#linearGradient2332"
       id="linearGradient2334"
       x1="11.436596"
       y1="5.6320758"
       x2="15.465494"
       y2="8.1343861"
       gradientUnits="userSpaceOnUse" />
    <inkscape:path-effect
       effect="fill_between_many"
       method="originald"
       linkedpaths="#text2367,0,1"
       id="path-effect2378" />
    <linearGradient
       inkscape:collect="always"
       xlink:href="#linearGradient4674"
       id="linearGradient4676"
       x1="12.150324"
       y1="10.100171"
       x2="17.706573"
       y2="12.746004"
       gradientUnits="userSpaceOnUse" />
    <linearGradient
       inkscape:collect="always"
       xlink:href="#linearGradient4682"
       id="linearGradient4684"
       x1="8.3819163"
       y1="7.3742803"
       x2="12.097876"
       y2="7.3742803"
       gradientUnits="userSpaceOnUse" />
    <linearGradient
       inkscape:collect="always"
       xlink:href="#linearGradient4785"
       id="linearGradient4775"
       x1="10.033657"
       y1="7.189754"
       x2="15.85449"
       y2="10.100171"
       gradientUnits="userSpaceOnUse" />
    <linearGradient
       inkscape:collect="always"
       xlink:href="#linearGradient4773"
       id="linearGradient4779"
       gradientUnits="userSpaceOnUse"
       x1="10.033657"
       y1="7.189754"
       x2="15.85449"
       y2="10.100171" />
  </defs>
  <g
     inkscape:label="Layer 1"
     inkscape:groupmode="layer"
     id="layer1"
     transform="translate(-7.9169905,-4.2793375)">
    <path
       style="fill:url(#linearGradient2312);fill-opacity:1;stroke:none;stroke-width:0.141268;stroke-linecap:round;stroke-dasharray:none;stroke-opacity:1"
       d="m 12.188403,5.4536285 3.242284,-0.3531699 0.95297,1.8247125 -1.5875,5.2916659 -3.175,0.529167 -2.8959953,-8.01e-4 -0.560952,-4.1944628 z"
       id="path2198"
       sodipodi:nodetypes="cccccccc" />
    <path
       style="fill:url(#linearGradient2334);fill-opacity:1;stroke:none;stroke-width:0.141268;stroke-linecap:round;stroke-dasharray:none;stroke-opacity:1"
       d="M 7.9169905,8.6939651 8.420796,10.46934 11.728763,10.41453 14.074022,6.2558811 13.637948,5.2957347 11.890155,4.2793375 H 8.7557697 L 7.9169905,6.7627858 Z"
       id="path2195"
       sodipodi:nodetypes="ccccccccc" />
    <path
       id="path4660"
       style="fill:#000000;fill-opacity:0.2;stroke:none;stroke-width:0.167948;stroke-linecap:round;stroke-dasharray:none"
       d="m 14.447578,6.1738359 c -0.17856,-0.00166 -0.342306,0.02184 -0.475154,0.08212 -0.758796,0.3443022 -1.127462,1.2022795 -1.420958,2.0446875 l -0.83164,-1.0281589 -0.622069,0.5033993 1.147777,1.4185826 c -0.320212,0.9223156 -0.710049,1.9783766 -1.571905,2.3764876 -0.56894,0.262808 -1.7364052,-0.606569 -1.7364052,-0.606569 0,0 0.9439403,1.726683 1.6905052,1.649393 1.139309,-0.117948 1.967913,-1.391484 2.376821,-2.480869 l 1.096986,1.355926 0.62207,-0.503399 -1.455848,-1.7997506 c 0.264544,-1.0106174 0.814716,-1.798045 1.605136,-2.3107459 0.395664,-0.2566472 1.378608,-0.179472 1.378608,-0.179472 0,0 -1.03015,-0.5145588 -1.803924,-0.5216316 z"
       sodipodi:nodetypes="ccccccscsccccscc"
       inkscape:label="shadow x" />
    <path
       id="path11064"
       style="fill:url(#linearGradient4676);fill-opacity:1;stroke:none;stroke-width:0.167948;stroke-linecap:round;stroke-dasharray:none"
       d="m 14.315353,6.0414779 c -0.17856,-0.00166 -0.342306,0.02184 -0.475154,0.08212 -0.758796,0.3443022 -1.127462,1.2022795 -1.420958,2.0446875 l -0.83164,-1.0281589 -0.622069,0.5033993 1.147777,1.4185826 C 11.793097,9.9844253 11.40326,11.040486 10.541404,11.438597 9.9724638,11.701405 8.8049973,10.832028 8.8049973,10.832028 c 0,0 0.9439403,1.726683 1.6905067,1.649393 1.139309,-0.117948 1.967913,-1.391484 2.376821,-2.480869 l 1.096986,1.355926 0.62207,-0.503399 -1.455848,-1.7997516 c 0.264544,-1.0106174 0.814716,-1.798045 1.605136,-2.3107459 0.395664,-0.2566472 1.378608,-0.179472 1.378608,-0.179472 0,0 -1.03015,-0.5145588 -1.803924,-0.5216316 z"
       sodipodi:nodetypes="ccccccscsccccscc"
       inkscape:label="letter x" />
    <path
       id="path4657"
       style="color:#000000;font-size:7.37694px;font-family:'Cambria Math';-inkscape-font-specification:'Cambria Math';fill:#000000;fill-opacity:0.2;stroke:none;stroke-width:0.423712;stroke-linecap:butt;-inkscape-stroke:none"
       d="m 10.818527,4.6778 c -0.16483,0 -0.32171,0.01957 -0.46871,0.0584 -0.14288,0.03847 -0.28554,0.09687 -0.4258112,0.173633 -0.1393203,0.07518 -0.3181103,0.190768 -0.5488003,0.353466 l -0.0899,0.0646 V 5.94905 h 0.57051 l 0.0646,-0.07597 C 10.052017,5.715151 10.178267,5.605981 10.297137,5.540797 h 0.002 c 0.12091,-0.06718 0.2451,-0.09974 0.38654,-0.09974 0.11348,0 0.18629,0.02222 0.23822,0.05684 l 0.004,0.0021 0.002,0.0021 c 0.0598,0.03741 0.10757,0.09067 0.14832,0.1757 l 0.002,0.0021 v 0.0021 c 0.0448,0.08771 0.0799,0.200549 0.10128,0.341582 0.0221,0.14564 0.0331,0.31348 0.0331,0.501778 0,0.01336 -10e-4,0.0347 -10e-4,0.04909 -0.0566,-0.02647 -0.11591,-0.07511 -0.17208,-0.09198 -0.1554,-0.04892 -0.32771,-0.07235 -0.51728,-0.07235 -0.29126,0 -0.5707908,0.07362 -0.8263121,0.214974 h -0.002 C 9.4458549,6.7649181 9.230955,6.959097 9.051525,7.199216 h -0.002 c -0.17525,0.235411 -0.30766,0.4991689 -0.39843,0.7870331 -0.09,0.2833401 -0.1369399,0.573134 -0.1369399,0.863513 0,0.2972921 0.0501,0.5614531 0.15865,0.787032 0.1084101,0.2225236 0.2767701,0.4025209 0.48989,0.5234829 l 0.002,0.0021 c 0.21344,0.118256 0.46105,0.173633 0.7322506,0.173633 0.2641513,0 0.5091213,-0.04609 0.7286413,-0.14056 v 0.0021 c 0.21693,-0.0922 0.41082,-0.2246537 0.57619,-0.3927418 0.16413,-0.166817 0.30788,-0.3722101 0.43564,-0.614949 0.12917,-0.245425 0.23953,-0.53742 0.33383,-0.874882 0.0937,-0.335363 0.15959,-0.657413 0.19947,-0.968933 v -0.0021 c 0.0392,-0.308892 0.0605,-0.575731 0.0605,-0.8066701 0,-0.5777929 -0.10013,-1.034535 -0.34003,-1.361157 -0.23911,-0.328633 -0.62306,-0.498161 -1.07229,-0.498161 z m -0.18759,2.441195 c 0.1659,0 0.24707,0.03943 0.29714,0.0956 l 0.002,0.0021 c 0.0483,0.05288 0.0956,0.172748 0.0956,0.388607 0,0.202001 -0.0593,0.519182 -0.18552,0.9260421 -0.12401,0.3966059 -0.27316,0.6824969 -0.42788,0.857312 -0.14953,0.169203 -0.30073,0.238228 -0.5038414,0.238228 -0.0873,0 -0.1450401,-0.01739 -0.1819001,-0.03927 -0.023,-0.01365 -0.0591,-0.0527 -0.0956,-0.14211 -0.031,-0.08464 -0.0548,-0.232578 -0.0548,-0.4320149 0,-0.1952501 0.0174,-0.3794841 0.0527,-0.556555 v -0.0021 c 0.0385,-0.182941 0.0911,-0.362617 0.1565799,-0.5389851 v -0.0021 c 0.0659,-0.170865 0.1458404,-0.317432 0.2382216,-0.441317 0.091,-0.122022 0.1879,-0.207538 0.29094,-0.265617 0.10571,-0.0604 0.20683,-0.08785 0.31626,-0.08785 z"
       sodipodi:nodetypes="ccccccccccsccccccssccscccccscccsccsssccsccccccsccsscsccccsccc"
       inkscape:label="shadow d" />
    <path
       id="path4745"
       style="font-size:7.37694px;font-family:'Cambria Math';-inkscape-font-specification:'Cambria Math';fill:url(#linearGradient4775);stroke:none;stroke-width:0.423712;stroke-linecap:butt;color:#000000;-inkscape-stroke:none;fill-opacity:1"
       class="UnoptimicedTransforms"
       d="m 10.687364,4.5449544 c -0.16483,0 -0.321712,0.019566 -0.468705,0.058394 h -0.0021 C 10.073743,4.641817 9.9331171,4.7007454 9.792845,4.7774983 v -0.00207 C 9.6533334,4.8505777 9.4736204,4.9675937 9.2419742,5.1309651 l -0.0894,0.064596 v 0.620634 h 0.569991 l 0.064596,-0.075964 C 9.9187647,5.5823037 10.047084,5.4731346 10.165949,5.4079508 c 0.120917,-0.067177 0.2451,-0.099219 0.38654,-0.099219 0.113477,0 0.188364,0.021706 0.240295,0.056327 l 0.0021,0.00207 0.0021,0.00207 c 0.05985,0.037409 0.107564,0.090669 0.148311,0.1756998 l 0.0021,0.00207 v 0.00207 c 0.04479,0.087706 0.08043,0.2005483 0.101803,0.3415813 0.02207,0.1456397 0.03514,0.3134802 0.03514,0.5017781 0,0.013354 -0.0019,0.034708 -0.0021,0.049093 -0.05709,-0.026789 -0.116961,-0.07497 -0.173633,-0.091984 -0.155397,-0.048921 -0.328227,-0.072347 -0.517798,-0.072347 -0.291261,0 -0.570786,0.073622 -0.8263058,0.2149739 C 9.3141972,6.6319499 9.0973929,6.8261279 8.917963,7.0662475 8.742713,7.3016581 8.6082385,7.5654161 8.5174706,7.8532796 8.4275202,8.13662 8.3825952,8.4264157 8.3825952,8.7167927 c 0,0.2972922 0.048073,0.5614531 0.1565795,0.7870321 h 0.00207 c 0.1084053,0.222522 0.2747006,0.40252 0.4878255,0.5234822 h 0.00207 v 0.0021 c 0.2134396,0.118257 0.4615695,0.173633 0.7327718,0.173633 0.2641438,0 0.5085988,-0.04608 0.7281208,-0.14056 v 0.0021 c 0.216931,-0.092196 0.410818,-0.2246536 0.576192,-0.3927408 0.164126,-0.1668162 0.307875,-0.3722093 0.435633,-0.6149495 0.129172,-0.2454246 0.23954,-0.5374188 0.333829,-0.874882 0.09371,-0.3353626 0.161665,-0.6574115 0.201539,-0.9689331 v -0.00207 c 0.03922,-0.3088916 0.05839,-0.5757312 0.05839,-0.8066691 0,-0.5777924 -0.100128,-1.0345353 -0.340031,-1.3611572 C 11.518486,4.714544 11.136595,4.5449544 10.687364,4.5449544 Z M 10.499779,6.986149 c 0.165895,0 0.245002,0.039943 0.295072,0.096118 l 0.0021,0.00155 c 0.04828,0.052881 0.0956,0.1727483 0.0956,0.3886068 0,0.2019995 -0.05925,0.5191809 -0.185518,0.9260416 -0.124013,0.3966046 -0.273159,0.682497 -0.427881,0.857312 -0.149527,0.1692022 -0.3007332,0.2382284 -0.503845,0.2382284 -0.087312,0 -0.1424586,-0.016872 -0.1793172,-0.038757 C 9.5729198,9.4416 9.5347493,9.4020419 9.4982893,9.312622 9.4673094,9.2279791 9.4435123,9.0800428 9.4435123,8.880607 c 0,-0.1952504 0.01743,-0.3794846 0.05271,-0.5565551 v -0.00155 c 0.03849,-0.1829436 0.090589,-0.3631342 0.1560628,-0.539502 v -0.00155 c 0.065845,-0.1708651 0.145839,-0.3179478 0.2382283,-0.4418335 0.091,-0.122022 0.1878956,-0.2075383 0.2909386,-0.2656168 h 0.0021 c 0.105657,-0.060403 0.206823,-0.08785 0.31626,-0.08785 z"
       inkscape:label="lettter d" />
    <path
       id="path4668"
       style="fill:#8b0000;fill-opacity:1;stroke:none;stroke-width:0.167948;stroke-linecap:round;stroke-dasharray:none"
       d="m 25.236394,4.7070713 c -0.17856,-0.00166 -0.342306,0.02184 -0.475154,0.08212 -0.758796,0.3443022 -1.127462,1.2022795 -1.420958,2.0446875 l -0.83164,-1.0281589 -0.622069,0.5033993 1.147777,1.4185826 c -0.320212,0.9223169 -0.710049,1.9783776 -1.571905,2.3764882 -0.56894,0.262808 -1.736407,-0.6065686 -1.736407,-0.6065686 0,0 0.94394,1.7266826 1.690507,1.6493926 1.139309,-0.117948 1.967913,-1.3914836 2.376821,-2.4808686 l 1.096986,1.3559256 0.62207,-0.5033986 -1.455848,-1.7997516 c 0.264544,-1.0106174 0.814716,-1.798045 1.605136,-2.3107459 0.395664,-0.2566472 1.378608,-0.179472 1.378608,-0.179472 0,0 -1.03015,-0.5145588 -1.803924,-0.5216316 z"
       sodipodi:nodetypes="ccccccscsccccscc"
       inkscape:label="letter x" />
    <path
       id="path4777"
       style="color:#000000;font-size:7.37694px;font-family:'Cambria Math';-inkscape-font-specification:'Cambria Math';fill:url(#linearGradient4779);fill-opacity:1;stroke:none;stroke-width:0.423712;stroke-linecap:butt;-inkscape-stroke:none"
       class="UnoptimicedTransforms"
       d="m 10.687364,4.5449544 c -0.16483,0 -0.321712,0.019566 -0.468705,0.058394 h -0.0021 C 10.073743,4.641817 9.9331171,4.7007454 9.792845,4.7774983 v -0.00207 C 9.6533334,4.8505777 9.4736204,4.9675937 9.2419742,5.1309651 l -0.0894,0.064596 v 0.620634 h 0.569991 l 0.064596,-0.075964 C 9.9187647,5.5823037 10.047084,5.4731346 10.165949,5.4079508 c 0.120917,-0.067177 0.2451,-0.099219 0.38654,-0.099219 0.113477,0 0.188364,0.021706 0.240295,0.056327 l 0.0021,0.00207 0.0021,0.00207 c 0.05985,0.037409 0.107564,0.090669 0.148311,0.1756998 l 0.0021,0.00207 v 0.00207 c 0.04479,0.087706 0.08043,0.2005483 0.101803,0.3415813 0.02207,0.1456397 0.03514,0.3134802 0.03514,0.5017781 0,0.013354 -0.0019,0.034708 -0.0021,0.049093 C 11.025148,6.414702 10.965277,6.366521 10.908605,6.349507 10.753208,6.300586 10.580378,6.27716 10.390807,6.27716 10.099546,6.27716 9.820021,6.350782 9.5645012,6.4921339 9.3141972,6.6319499 9.0973929,6.8261279 8.917963,7.0662475 8.742713,7.3016581 8.6082385,7.5654161 8.5174706,7.8532796 8.4275202,8.13662 8.3825952,8.4264157 8.3825952,8.7167927 c 0,0.2972922 0.048073,0.5614531 0.1565795,0.7870321 h 0.00207 c 0.1084053,0.222522 0.2747006,0.40252 0.4878255,0.5234822 h 0.00207 v 0.0021 c 0.2134396,0.118257 0.4615695,0.173633 0.7327718,0.173633 0.264144,0 0.508599,-0.04608 0.728121,-0.14056 v 0.0021 C 10.708964,9.972384 10.902851,9.8399264 11.068225,9.6718392 11.232351,9.505023 11.3761,9.2996299 11.503858,9.0568897 c 0.129172,-0.2454246 0.23954,-0.5374188 0.333829,-0.874882 0.09371,-0.3353626 0.161665,-0.6574115 0.201539,-0.9689331 v -0.00207 c 0.03922,-0.3088916 0.05839,-0.5757312 0.05839,-0.8066691 0,-0.5777924 -0.100128,-1.0345353 -0.340031,-1.3611572 C 11.518486,4.714544 11.136595,4.5449544 10.687364,4.5449544 Z M 10.499779,6.986149 c 0.165895,0 0.245002,0.039943 0.295072,0.096118 l 0.0021,0.00155 c 0.04828,0.052881 0.0956,0.1727483 0.0956,0.3886068 0,0.2019995 -0.05925,0.5191809 -0.185518,0.9260416 -0.124013,0.3966046 -0.273159,0.682497 -0.427881,0.857312 -0.149527,0.1692022 -0.3007332,0.2382284 -0.503845,0.2382284 -0.087312,0 -0.1424586,-0.016872 -0.1793172,-0.038757 C 9.5729198,9.4416 9.5347493,9.4020419 9.4982893,9.312622 9.4673094,9.2279791 9.4435123,9.0800428 9.4435123,8.880607 c 0,-0.1952504 0.01743,-0.3794846 0.05271,-0.5565551 v -0.00155 c 0.03849,-0.1829436 0.090589,-0.3631342 0.1560628,-0.539502 v -0.00155 c 0.065845,-0.1708651 0.145839,-0.3179478 0.2382283,-0.4418335 0.091,-0.122022 0.1878956,-0.2075383 0.2909386,-0.2656168 h 0.0021 c 0.105657,-0.060403 0.206823,-0.08785 0.31626,-0.08785 z"
       inkscape:label="lettter d"
       transform="translate(13.111279,-5.7634778)" />
  </g>
</svg>
