<?xml version="1.0" encoding="UTF-8" standalone="no"?>
<!-- Created with Inkscape (http://www.inkscape.org/) -->

<svg
   width="16"
   height="16"
   viewBox="0 0 4.2333333 4.2333332"
   version="1.1"
   id="svg5"
   inkscape:version="1.2.2 (732a01da63, 2022-12-09)"
   sodipodi:docname="var_delta_V.svg"
   inkscape:export-filename="var_delta_V.png"
   inkscape:export-xdpi="384"
   inkscape:export-ydpi="384"
   xmlns:inkscape="http://www.inkscape.org/namespaces/inkscape"
   xmlns:sodipodi="http://sodipodi.sourceforge.net/DTD/sodipodi-0.dtd"
   xmlns:xlink="http://www.w3.org/1999/xlink"
   xmlns="http://www.w3.org/2000/svg"
   xmlns:svg="http://www.w3.org/2000/svg">
  <sodipodi:namedview
     id="namedview7"
     pagecolor="#a3a3a3"
     bordercolor="#000000"
     borderopacity="0.25"
     inkscape:showpageshadow="2"
     inkscape:pageopacity="0"
     inkscape:pagecheckerboard="0"
     inkscape:deskcolor="#d1d1d1"
     inkscape:document-units="mm"
     showgrid="true"
     inkscape:zoom="45.254834"
     inkscape:cx="6.0877474"
     inkscape:cy="7.1815532"
     inkscape:window-width="2498"
     inkscape:window-height="1417"
     inkscape:window-x="54"
     inkscape:window-y="-8"
     inkscape:window-maximized="1"
     inkscape:current-layer="path9938">
    <inkscape:grid
       type="xygrid"
       id="grid1065"
       color="#404040"
       opacity="0.14901961"
       empcolor="#232323"
       empopacity="0.30196078"
       enabled="true"
       originx="0"
       originy="0"
       empspacing="4" />
  </sodipodi:namedview>
  <defs
     id="defs2">
    <inkscape:path-effect
       effect="spiro"
       id="path-effect394"
       is_visible="true"
       lpeversion="1" />
    <linearGradient
       inkscape:collect="always"
       id="linearGradient4682">
      <stop
         style="stop-color:#1a1a1a;stop-opacity:1;"
         offset="0"
         id="stop4678" />
      <stop
         style="stop-color:#171717;stop-opacity:1;"
         offset="1"
         id="stop4680" />
    </linearGradient>
    <inkscape:path-effect
       effect="spiro"
       id="path-effect7283"
       is_visible="true"
       lpeversion="1" />
    <inkscape:path-effect
       effect="spiro"
       id="path-effect6549"
       is_visible="true"
       lpeversion="1" />
    <inkscape:path-effect
       effect="spiro"
       id="path-effect6545"
       is_visible="true"
       lpeversion="1" />
    <inkscape:path-effect
       effect="spiro"
       id="path-effect6541"
       is_visible="true"
       lpeversion="1" />
    <inkscape:path-effect
       effect="bspline"
       id="path-effect2061"
       is_visible="true"
       lpeversion="1"
       weight="33.333333"
       steps="2"
       helper_size="0"
       apply_no_weight="true"
       apply_with_weight="true"
       only_selected="false" />
    <inkscape:path-effect
       effect="bspline"
       id="path-effect2057"
       is_visible="true"
       lpeversion="1"
       weight="33.333333"
       steps="2"
       helper_size="0"
       apply_no_weight="true"
       apply_with_weight="true"
       only_selected="false" />
    <pattern
       id="EMFhbasepattern"
       patternUnits="userSpaceOnUse"
       width="6"
       height="6"
       x="0"
       y="0" />
    <pattern
       id="EMFhbasepattern-4"
       patternUnits="userSpaceOnUse"
       width="6"
       height="6"
       x="0"
       y="0" />
    <inkscape:path-effect
       effect="fill_between_many"
       method="originald"
       linkedpaths="#text2367,0,1"
       id="path-effect2378"
       is_visible="true"
       lpeversion="0"
       join="true"
       close="true"
       autoreverse="true" />
    <linearGradient
       inkscape:collect="always"
       xlink:href="#linearGradient4682"
       id="linearGradient4684"
       x1="8.381916"
       y1="7.3742805"
       x2="12.097876"
       y2="7.3742805"
       gradientUnits="userSpaceOnUse" />
  </defs>
  <g
     inkscape:label="Layer 1"
     inkscape:groupmode="layer"
     id="layer1"
     transform="translate(-7.9169905,-4.2793375)">
    <rect
       style="display:inline;fill:#ffffff;fill-opacity:1;stroke-width:0.264583;stroke-linecap:round;stroke-opacity:0.0959233"
       id="rect357"
       width="4.2333331"
       height="4.2333331"
       x="7.9169903"
       y="4.2793374"
       ry="1.0583334"
       rx="0.79375005" />
    <g
       aria-label="d"
       transform="matrix(0.99998818,0,0,1.0000118,-0.28278297,-0.17823689)"
       id="text508"
       style="font-size:4.65134px;font-family:'Cambria Math';-inkscape-font-specification:'Cambria Math';fill:#1f1f1f;stroke-width:0.218031;stroke-linecap:round;stroke-opacity:0.0959233" />
    <text
       xml:space="preserve"
       style="font-style:normal;font-variant:normal;font-weight:normal;font-stretch:normal;font-size:5.64949px;font-family:'Microsoft YaHei';-inkscape-font-specification:'Microsoft YaHei';fill:#1f1f1f;fill-opacity:1;stroke-width:0.264819;stroke-linecap:round;stroke-opacity:0.0959233"
       x="2.8283484"
       y="9.1625786"
       id="text5936"
       transform="scale(1.103895,0.90588326)"><tspan
         sodipodi:role="line"
         id="tspan5934"
         style="font-style:normal;font-variant:normal;font-weight:normal;font-stretch:normal;font-family:'Cambria Math';-inkscape-font-specification:'Cambria Math';stroke-width:0.264819"
         x="2.8283484"
         y="9.1625786">∂</tspan></text>
    <g
       aria-label="∂"
       transform="matrix(1.103895,0,0,0.90588326,0.37076324,0.0751833)"
       id="text9936"
       style="font-size:5.64949px;font-family:'Microsoft YaHei';-inkscape-font-specification:'Microsoft YaHei';fill:#1f1f1f;stroke:#1f1f1f;stroke-width:0.264583;stroke-linecap:round">
      <g
         id="path9938">
        <path
           id="path9955"
           style="color:#000000;-inkscape-font-specification:'Cambria Math';stroke:none;stroke-width:0.257875;stroke-linecap:butt;-inkscape-stroke:none"
           d="m 9.1629192,4.948025 c -0.1238065,0 -0.2414484,0.013112 -0.3510811,0.040699 v 0.00217 C 8.7051087,5.0182732 8.5970527,5.0585788 8.491611,5.1135367 8.0904424,5.3231645 8.1045425,5.9708368 8.1045425,5.9708368 8.1024975,5.951845 8.4650602,5.6224601 8.7491951,5.5237794 c 0.096763,-0.051209 0.1969918,-0.075971 0.3099427,-0.075971 0.091107,0 0.1554118,0.017705 0.2010184,0.046668 v 0.00163 h 0.00187 c 0.050886,0.030297 0.091615,0.073449 0.1248184,0.1394607 v 0.00163 l 0.00234,0.00217 c 0.036066,0.067278 0.063226,0.15321 0.079939,0.2583009 0.017151,0.1078275 0.027114,0.229582 0.027114,0.3679162 0,0.022957 -0.0029,0.056657 -0.00375,0.083568 -0.056539,-0.027896 -0.1146031,-0.071706 -0.169697,-0.087366 h -0.00234 c -0.1147693,-0.034179 -0.2418867,-0.05046 -0.3838048,-0.05046 -0.2179061,0 -0.427273,0.051725 -0.6184826,0.1524844 C 8.1306948,6.4636533 7.9673983,6.600391 7.8324528,6.7724145 v 0.00217 C 7.7004572,6.9434881 7.6008003,7.1304661 7.532332,7.337309 7.4641264,7.5415013 7.4285506,7.7490596 7.4285506,7.9580998 c 0,0.2134125 0.038662,0.4015887 0.1192087,0.5610993 v 0.00163 c 0.080485,0.1573709 0.20291,0.2824993 0.3608984,0.3679161 l 0.00187,0.00163 c 0.1581878,0.083486 0.3426601,0.1226385 0.5460225,0.1226385 0.197937,0 0.380908,-0.031589 0.5441523,-0.09822 C 9.5379165,8.7288211 9.7170303,8.0729323 9.8704722,7.6110857 9.9417841,7.3679543 9.9939812,7.1343145 10.024275,6.908898 10.054164,6.6847189 10.069545,6.4904919 10.069157,6.3239221 10.068189,5.9092187 10.027011,5.584173 9.8350619,5.3175406 9.6760976,5.0967225 9.4989955,4.948025 9.1629192,4.948025 Z M 9.0184665,6.6703932 c 0.1322707,0 0.204513,0.029916 0.2496369,0.07814 v 0.00163 c 0.044349,0.046268 0.08181,0.141633 0.08181,0.3027982 0,0.152287 -0.045068,0.3842343 -0.1421155,0.6821098 C 9.1120719,8.0272107 8.994909,8.2383887 8.8721432,8.3705183 8.7531318,8.4988013 8.627772,8.5544762 8.4644965,8.5544762 c -0.070721,0 -0.118566,-0.012338 -0.1524001,-0.031472 -0.025414,-0.014373 -0.057569,-0.049925 -0.08742,-0.1210102 -0.025549,-0.066763 -0.043009,-0.176492 -0.043009,-0.3234187 0,-0.1444822 0.013561,-0.2810649 0.041138,-0.4124134 C 8.2526758,7.5305894 8.292427,7.3990407 8.3434181,7.2683969 8.3947506,7.1412617 8.4562805,7.0324487 8.5290096,6.9395516 8.6006743,6.8480137 8.6779779,6.7816548 8.760882,6.7371432 h 0.00187 c 0.084903,-0.046216 0.166789,-0.066746 0.2557142,-0.066746 z"
           sodipodi:nodetypes="scccccsccccccsscccsccccsccccscccsassccsccsscsccsccss" />
      </g>
    </g>
  </g>
</svg>
